0
SECTION
2
HEADER
9
$INSUNITS
70
5
9
$ACADVER
1
AC1014
9
$HANDSEED
5
FFFF
0
ENDSEC
0
SECTION
2
TABLES
0
TABLE
2
VPORT
5
8
100
AcDbSymbolTable
0
ENDTAB
0
TABLE
2
LTYPE
5
5
100
AcDbSymbolTable
0
LTYPE
5
14
100
AcDbSymbolTableRecord
100
AcDbLinetypeTableRecord
2
BYBLOCK
70
0
0
LTYPE
5
15
100
AcDbSymbolTableRecord
100
AcDbLinetypeTableRecord
2
BYLAYER
70
0
0
ENDTAB
0
TABLE
2
LAYER
5
2
100
AcDbSymbolTable
70
2
0
LAYER
5
50
100
AcDbSymbolTableRecord
100
AcDbLayerTableRecord
2
0
70
0
6
CONTINUOUS
0
ENDTAB
0
TABLE
2
STYLE
5
3
100
AcDbSymbolTable
70
1
0
STYLE
5
11
100
AcDbSymbolTableRecord
100
AcDbTextStyleTableRecord
2
STANDARD
70
0
0
ENDTAB
0
TABLE
2
VIEW
5
6
100
AcDbSymbolTable
70
0
0
ENDTAB
0
TABLE
2
UCS
5
7
100
AcDbSymbolTable
70
0
0
ENDTAB
0
TABLE
2
APPID
5
9
100
AcDbSymbolTable
70
2
0
APPID
5
12
100
AcDbSymbolTableRecord
100
AcDbRegAppTableRecord
2
ACAD
70
0
0
ENDTAB
0
TABLE
2
DIMSTYLE
5
A
100
AcDbSymbolTable
70
1
0
ENDTAB
0
TABLE
2
BLOCK_RECORD
5
1
100
AcDbSymbolTable
70
1
0
BLOCK_RECORD
5
1F
100
AcDbSymbolTableRecord
100
AcDbBlockTableRecord
2
*MODEL_SPACE
0
BLOCK_RECORD
5
1B
100
AcDbSymbolTableRecord
100
AcDbBlockTableRecord
2
*PAPER_SPACE
0
ENDTAB
0
ENDSEC
0
SECTION
2
BLOCKS
0
BLOCK
5
20
100
AcDbEntity
100
AcDbBlockBegin
2
*MODEL_SPACE
0
ENDBLK
5
21
100
AcDbEntity
100
AcDbBlockEnd
0
BLOCK
5
1C
100
AcDbEntity
100
AcDbBlockBegin
2
*PAPER_SPACE
0
ENDBLK
5
1D
100
AcDbEntity
100
AcDbBlockEnd
0
ENDSEC
0
SECTION
2
ENTITIES
0
LINE
5
100
100
AcDbEntity
8
0
100
AcDbLine
10
20.050000060349703
20
6.0749995976686471
30
0
11
20.050000060349703
21
19.5
31
0
0
LINE
5
101
100
AcDbEntity
8
0
100
AcDbLine
10
4.6978428912794019
20
9.9246421511200271
30
0
11
4.6989009188204927
21
6.0746424418790808
31
0
0
LINE
5
102
100
AcDbEntity
8
0
100
AcDbLine
10
26.999999932944775
20
13.999999597668648
30
0
11
26.999999932944775
21
14.074999597668647
31
0
0
LINE
5
103
100
AcDbEntity
8
0
100
AcDbLine
10
26.999999932944775
20
13.999999597668648
30
0
11
26.999999932944775
21
13.924999597668648
31
0
0
LINE
5
104
100
AcDbEntity
8
0
100
AcDbLine
10
27.449999922886491
20
13.924999597668648
30
0
11
27.54777124726505
21
13.924999597668648
31
0
0
LINE
5
105
100
AcDbEntity
8
0
100
AcDbLine
10
18.999999932944775
20
13.999999597668648
30
0
11
18.999999932944775
21
14.074999597668647
31
0
0
LINE
5
106
100
AcDbEntity
8
0
100
AcDbLine
10
18.999999932944775
20
14.074999597668647
30
0
11
19.300000049173828
21
14.074999597668649
31
0
0
LINE
5
107
100
AcDbEntity
8
0
100
AcDbLine
10
18.999999932944775
20
13.999999597668648
30
0
11
18.999999932944775
21
13.924999597668648
31
0
0
LINE
5
108
100
AcDbEntity
8
0
100
AcDbLine
10
19.300000049173828
20
14.074999597668649
30
0
11
19.550000052899122
21
14.074999597668647
31
0
0
LINE
5
109
100
AcDbEntity
8
0
100
AcDbLine
10
18.999999932944775
20
13.924999597668648
30
0
11
19.449999922886491
21
13.924999597668648
31
0
0
LINE
5
110
100
AcDbEntity
8
0
100
AcDbLine
10
23.449999922886491
20
13.924999597668648
30
0
11
23.54777124726505
21
13.924999597668648
31
0
0
LINE
5
111
100
AcDbEntity
8
0
100
AcDbLine
10
23.300000049173828
20
14.074999597668649
30
0
11
23.550000052899122
21
14.074999597668647
31
0
0
LINE
5
112
100
AcDbEntity
8
0
100
AcDbLine
10
22.999999932944775
20
13.924999597668648
30
0
11
23.449999922886491
21
13.924999597668648
31
0
0
LINE
5
113
100
AcDbEntity
8
0
100
AcDbLine
10
23.54777124726505
20
13.924999597668648
30
0
11
23.697771247265049
21
13.924999597668648
31
0
0
LINE
5
114
100
AcDbEntity
8
0
100
AcDbLine
10
15.800000056624413
20
10.074999597668647
30
0
11
15.650000054389238
21
10.074999597668647
31
0
0
LINE
5
115
100
AcDbEntity
8
0
100
AcDbLine
10
15.449999922886491
20
9.9249995976686485
30
0
11
15.54777124726505
21
9.9249995976686485
31
0
0
LINE
5
116
100
AcDbEntity
8
0
100
AcDbLine
10
14.999999932944775
20
9.9999995976686478
30
0
11
14.999999932944775
21
9.9249995976686485
31
0
0
LINE
5
117
100
AcDbEntity
8
0
100
AcDbLine
10
14.999999932944775
20
9.9999995976686478
30
0
11
14.999999932944775
21
10.074999597668647
31
0
0
LINE
5
118
100
AcDbEntity
8
0
100
AcDbLine
10
15.54777124726505
20
9.9249995976686485
30
0
11
15.697771247265049
21
9.9249995976686485
31
0
0
LINE
5
119
100
AcDbEntity
8
0
100
AcDbLine
10
15.550000052899122
20
10.074999597668647
30
0
11
15.650000054389238
21
10.074999597668647
31
0
0
LINE
5
120
100
AcDbEntity
8
0
100
AcDbLine
10
12.700000070035458
20
9.9235394449130467
30
0
11
12.700000070035458
21
6.0750000000000002
31
0
0
LINE
5
121
100
AcDbEntity
8
0
100
AcDbLine
10
22
20
10
30
0
11
22
21
9.9250000000000007
31
0
0
LINE
5
122
100
AcDbEntity
8
0
100
AcDbLine
10
22
20
10.074999999999999
30
0
11
20.700000070035458
21
10.074999999999999
31
0
0
LINE
5
123
100
AcDbEntity
8
0
100
AcDbLine
10
22
20
10
30
0
11
22
21
10.074999999999999
31
0
0
LINE
5
124
100
AcDbEntity
8
0
100
AcDbLine
10
22
20
9.9250000000000007
30
0
11
20.700000070035458
21
9.9234736880792305
31
0
0
LINE
5
125
100
AcDbEntity
8
0
100
AcDbLine
10
22.999999932944775
20
13.999999597668648
30
0
11
22.999999932944775
21
13.924999597668648
31
0
0
LINE
5
126
100
AcDbEntity
8
0
100
AcDbLine
10
22.999999932944775
20
13.999999597668648
30
0
11
22.999999932944775
21
14.074999597668647
31
0
0
LINE
5
127
100
AcDbEntity
8
0
100
AcDbLine
10
22.999999932944775
20
14.074999597668647
30
0
11
23.300000049173828
21
14.074999597668649
31
0
0
LINE
5
128
100
AcDbEntity
8
0
100
AcDbLine
10
26
20
14
30
0
11
26.000262873769948
21
14.074999078620428
31
0
0
LINE
5
129
100
AcDbEntity
8
0
100
AcDbLine
10
26.000262873769948
20
14.074999078620428
30
0
11
26.000262873769948
21
13.92391942296889
31
0
0
LINE
5
130
100
AcDbEntity
8
0
100
AcDbLine
10
24.300000064074993
20
19.500000290572643
30
0
11
24.300000060349703
21
2.0749995976686471
31
0
0
LINE
5
131
100
AcDbEntity
8
0
100
AcDbLine
10
15.449999922886491
20
13.924999597668648
30
0
11
15.54777124726505
21
13.924999597668648
31
0
0
LINE
5
132
100
AcDbEntity
8
0
100
AcDbLine
10
33
20
0
30
0
11
33
21
24
31
0
0
LINE
5
133
100
AcDbEntity
8
0
100
AcDbLine
10
18
20
14.074999999999999
30
0
11
16.700000070035458
21
14.074999999999999
31
0
0
LINE
5
134
100
AcDbEntity
8
0
100
AcDbLine
10
14
20
14.074999999999999
30
0
11
12.700000070035458
21
14.074999999999999
31
0
0
LINE
5
135
100
AcDbEntity
8
0
100
AcDbLine
10
14.999999932944775
20
14.074999597668647
30
0
11
15.300000049173828
21
14.074999597668647
31
0
0
LINE
5
136
100
AcDbEntity
8
0
100
AcDbLine
10
18
20
13.925000000000001
30
0
11
16.700000070035458
21
13.925000000000001
31
0
0
LINE
5
137
100
AcDbEntity
8
0
100
AcDbLine
10
14
20
14
30
0
11
14
21
14.074999999999999
31
0
0
LINE
5
138
100
AcDbEntity
8
0
100
AcDbLine
10
14
20
13.925000000000001
30
0
11
12.700000070035458
21
13.925000000000001
31
0
0
LINE
5
139
100
AcDbEntity
8
0
100
AcDbLine
10
15.54777124726505
20
13.924999597668648
30
0
11
15.697771247265049
21
13.924999597668648
31
0
0
LINE
5
140
100
AcDbEntity
8
0
100
AcDbLine
10
14.999999932944775
20
13.999999597668648
30
0
11
14.999999932944775
21
14.074999597668647
31
0
0
LINE
5
141
100
AcDbEntity
8
0
100
AcDbLine
10
14.999999932944775
20
13.999999597668648
30
0
11
14.999999932944775
21
13.924999597668648
31
0
0
LINE
5
142
100
AcDbEntity
8
0
100
AcDbLine
10
22
20
14
30
0
11
22
21
13.925000000000001
31
0
0
LINE
5
143
100
AcDbEntity
8
0
100
AcDbLine
10
22
20
13.925000000000001
30
0
11
20.700000308454037
21
13.925000000000001
31
0
0
LINE
5
144
100
AcDbEntity
8
0
100
AcDbLine
10
22
20
14
30
0
11
22
21
14.074999999999999
31
0
0
LINE
5
145
100
AcDbEntity
8
0
100
AcDbLine
10
22
20
14.074999999999999
30
0
11
20.700000070035458
21
14.074999999999999
31
0
0
LINE
5
146
100
AcDbEntity
8
0
100
AcDbLine
10
19.449999922886491
20
13.924999597668648
30
0
11
19.54777124726505
21
13.924999597668648
31
0
0
LINE
5
147
100
AcDbEntity
8
0
100
AcDbLine
10
19.54777124726505
20
13.924999597668648
30
0
11
19.697771247265049
21
13.924999597668648
31
0
0
LINE
5
148
100
AcDbEntity
8
0
100
AcDbLine
10
12.200000060349703
20
19.5
30
0
11
12.200000062584877
21
5.9249995976686485
31
0
0
LINE
5
149
100
AcDbEntity
8
0
100
AcDbLine
10
32.200000060349701
20
19.5
30
0
11
32.300000064074993
21
19.500000290572643
31
0
0
LINE
5
150
100
AcDbEntity
8
0
100
AcDbLine
10
0.24999999441206455
20
1.925
30
0
11
0.24999999441206455
21
19.149999571964145
31
0
0
LINE
5
151
100
AcDbEntity
8
0
100
AcDbLine
10
32.450000062584877
20
19.500000290572643
30
0
11
32.450000062584877
21
22.300000332295895
31
0
0
LINE
5
152
100
AcDbEntity
8
0
100
AcDbLine
10
31.300000049173832
20
19.500000290572643
30
0
11
31.300000049173832
21
22.100000329315662
31
0
0
LINE
5
153
100
AcDbEntity
8
0
100
AcDbLine
10
31.950000056624411
20
19.500000290572643
30
0
11
32.050000060349703
21
19.5
31
0
0
LINE
5
154
100
AcDbEntity
8
0
100
AcDbLine
10
16.450000062584877
20
1.9249995976686485
30
0
11
16.450000062584877
21
19.500000290572643
31
0
0
LINE
5
155
100
AcDbEntity
8
0
100
AcDbLine
10
30.999999932944775
20
17.999999597668648
30
0
11
30.999999932944775
21
17.924999597668648
31
0
0
LINE
5
156
100
AcDbEntity
8
0
100
AcDbLine
10
20.450000062584877
20
1.9249995976686485
30
0
11
20.450000062584877
21
19.500000290572643
31
0
0
LINE
5
157
100
AcDbEntity
8
0
100
AcDbLine
10
8.2000000603497032
20
19.5
30
0
11
8.200000062584877
21
5.9249995976686485
31
0
0
LINE
5
158
100
AcDbEntity
8
0
100
AcDbLine
10
0
20
24
30
0
11
0
21
0
31
0
0
LINE
5
159
100
AcDbEntity
8
0
100
AcDbLine
10
30.999999932944775
20
17.924999597668648
30
0
11
31.449999922886491
21
17.924999597668648
31
0
0
LINE
5
160
100
AcDbEntity
8
0
100
AcDbLine
10
31.697771247265049
20
19.5
30
0
11
31.800000056624413
21
19.5
31
0
0
LINE
5
161
100
AcDbEntity
8
0
100
AcDbLine
10
4.0500000603497028
20
6.0749995976686471
30
0
11
4.0500000603497028
21
19.5
31
0
0
LINE
5
162
100
AcDbEntity
8
0
100
AcDbLine
10
31.449999922886491
20
19.500000290572643
30
0
11
31.550000052899122
21
19.5
31
0
0
LINE
5
163
100
AcDbEntity
8
0
100
AcDbLine
10
31.449999922886491
20
17.924999597668648
30
0
11
31.449999922886491
21
19.500000290572643
31
0
0
CIRCLE
5
164
100
AcDbEntity
8
0
100
AcDbCircle
10
30
20
18
30
0
40
1.25
210
0
220
-0
230
1
0
LINE
5
165
100
AcDbEntity
8
0
100
AcDbLine
10
30
20
18.074999999999999
30
0
11
28.700000070035458
21
18.074999999999999
31
0
0
LINE
5
166
100
AcDbEntity
8
0
100
AcDbLine
10
30.999999932944775
20
18.074999597668647
30
0
11
31.300000049173828
21
18.074999597668647
31
0
0
LINE
5
167
100
AcDbEntity
8
0
100
AcDbLine
10
28.300000064074993
20
19.500000290572643
30
0
11
28.300000060349703
21
2.0749995976686471
31
0
0
CIRCLE
5
168
100
AcDbEntity
8
0
100
AcDbCircle
10
14
20
10
30
0
40
1.25
210
0
220
-0
230
1
0
LINE
5
169
100
AcDbEntity
8
0
100
AcDbLine
10
30
20
18
30
0
11
30
21
18.074999999999999
31
0
0
LINE
5
170
100
AcDbEntity
8
0
100
AcDbLine
10
4.450000062584877
20
1.9249995976686485
30
0
11
4.450000062584877
21
19.500000290572643
31
0
0
LINE
5
171
100
AcDbEntity
8
0
100
AcDbLine
10
28.700000070035458
20
17.92074089453801
30
0
11
30
21
17.925000000000001
31
0
0
LINE
5
172
100
AcDbEntity
8
0
100
AcDbLine
10
30.999999932944775
20
17.999999597668648
30
0
11
30.999999932944775
21
18.074999597668647
31
0
0
LINE
5
173
100
AcDbEntity
8
0
100
AcDbLine
10
24.700000070035458
20
9.9295565344109473
30
0
11
24.700000070035458
21
6.0750000000000002
31
0
0
CIRCLE
5
174
100
AcDbEntity
8
0
100
AcDbCircle
10
26
20
18
30
0
40
1.25
210
0
220
-0
230
1
0
LINE
5
175
100
AcDbEntity
8
0
100
AcDbLine
10
31.300000049173828
20
18.074999597668647
30
0
11
31.300000049173832
21
19.500000290572643
31
0
0
LINE
5
176
100
AcDbEntity
8
0
100
AcDbLine
10
30
20
18
30
0
11
30
21
17.925000000000001
31
0
0
LINE
5
177
100
AcDbEntity
8
0
100
AcDbLine
10
24.700000070035458
20
17.934113068821894
30
0
11
26
21
17.925000000000001
31
0
0
LINE
5
178
100
AcDbEntity
8
0
100
AcDbLine
10
24.450000062584877
20
19.500000290572643
30
0
11
24.450000062584877
21
21.500000320374966
31
0
0
LINE
5
179
100
AcDbEntity
8
0
100
AcDbLine
10
23.697771247265049
20
19.5
30
0
11
23.800000056624413
21
19.5
31
0
0
LINE
5
180
100
AcDbEntity
8
0
100
AcDbLine
10
23.950000056624411
20
19.500000290572643
30
0
11
24.050000060349703
21
19.5
31
0
0
LINE
5
181
100
AcDbEntity
8
0
100
AcDbLine
10
24.700000070035458
20
18.074999597668647
30
0
11
26
21
18.074999999999999
31
0
0
LINE
5
182
100
AcDbEntity
8
0
100
AcDbLine
10
26
20
18
30
0
11
26
21
18.074999999999999
31
0
0
LINE
5
183
100
AcDbEntity
8
0
100
AcDbLine
10
24.700000070035458
20
18.074999597668647
30
0
11
24.550000365823507
21
18.074999597668647
31
0
0
LINE
5
184
100
AcDbEntity
8
0
100
AcDbLine
10
24.200000060349701
20
19.5
30
0
11
24.300000064074993
21
19.500000290572643
31
0
0
LINE
5
185
100
AcDbEntity
8
0
100
AcDbLine
10
22.999999932944775
20
17.999999597668648
30
0
11
22.999999932944775
21
18.074999597668647
31
0
0
LINE
5
186
100
AcDbEntity
8
0
100
AcDbLine
10
23.449999922886491
20
17.924999597668648
30
0
11
23.449999922886491
21
19.500000290572643
31
0
0
LINE
5
187
100
AcDbEntity
8
0
100
AcDbLine
10
28.550000425428152
20
2.0750000000000002
30
0
11
28.550000425428152
21
18.145141060526406
31
0
0
CIRCLE
5
188
100
AcDbEntity
8
0
100
AcDbCircle
10
10
20
10
30
0
40
1.25
210
0
220
-0
230
1
0
LINE
5
189
100
AcDbEntity
8
0
100
AcDbLine
10
26
20
18
30
0
11
26
21
17.925000000000001
31
0
0
LINE
5
190
100
AcDbEntity
8
0
100
AcDbLine
10
22
20
18
30
0
11
22
21
17.925000000000001
31
0
0
LINE
5
191
100
AcDbEntity
8
0
100
AcDbLine
10
22.999999932944775
20
18.074999597668647
30
0
11
23.300000049173828
21
18.074999597668647
31
0
0
LINE
5
192
100
AcDbEntity
8
0
100
AcDbLine
10
16.700000070035458
20
10.074999999999999
30
0
11
16.700000070035458
21
13.925000000000001
31
0
0
LINE
5
193
100
AcDbEntity
8
0
100
AcDbLine
10
14
20
14
30
0
11
14
21
13.925000000000001
31
0
0
LINE
5
194
100
AcDbEntity
8
0
100
AcDbLine
10
14.999999932944775
20
13.924999597668648
30
0
11
15.449999922886491
21
13.924999597668648
31
0
0
LINE
5
195
100
AcDbEntity
8
0
100
AcDbLine
10
15.800000056624413
20
13.924999597668648
30
0
11
15.800000056624413
21
10.100000150501728
31
0
0
LINE
5
196
100
AcDbEntity
8
0
100
AcDbLine
10
12.700000070035458
20
13.925000000000001
30
0
11
12.700000070035458
21
10.074999999999999
31
0
0
LINE
5
197
100
AcDbEntity
8
0
100
AcDbLine
10
15.300000049173828
20
14.074999597668647
30
0
11
15.550000052899122
21
14.074999597668647
31
0
0
CIRCLE
5
198
100
AcDbEntity
8
0
100
AcDbCircle
10
14
20
14
30
0
40
1.25
210
0
220
-0
230
1
0
CIRCLE
5
199
100
AcDbEntity
8
0
100
AcDbCircle
10
18
20
14
30
0
40
1.25
210
0
220
-0
230
1
0
LINE
5
200
100
AcDbEntity
8
0
100
AcDbLine
10
31.697771247265049
20
9.9249995976686485
30
0
11
31.800000056624413
21
9.9249995976686485
31
0
0
LINE
5
201
100
AcDbEntity
8
0
100
AcDbLine
10
31.300000049173889
20
10.074999597668489
30
0
11
31.550000052899122
21
10.074999597668647
31
0
0
LINE
5
202
100
AcDbEntity
8
0
100
AcDbLine
10
31.800000056624413
20
10.074999597668647
30
0
11
31.650000054389238
21
10.074999597668647
31
0
0
LINE
5
203
100
AcDbEntity
8
0
100
AcDbLine
10
30.999999932944775
20
9.9249995976686485
30
0
11
31.449999922886491
21
9.9249995976686485
31
0
0
LINE
5
204
100
AcDbEntity
8
0
100
AcDbLine
10
30
20
14.074999999999999
30
0
11
28.700000070035458
21
14.074999999999999
31
0
0
LINE
5
205
100
AcDbEntity
8
0
100
AcDbLine
10
30
20
13.925000000000001
30
0
11
28.700000070035458
21
13.925000000000001
31
0
0
LINE
5
206
100
AcDbEntity
8
0
100
AcDbLine
10
31.449999922886491
20
9.9249995976686485
30
0
11
31.54777124726505
21
9.9249995976686485
31
0
0
LINE
5
207
100
AcDbEntity
8
0
100
AcDbLine
10
31.800000056624413
20
9.9249995976686485
30
0
11
31.950000056624411
21
9.9249995976686485
31
0
0
CIRCLE
5
208
100
AcDbEntity
8
0
100
AcDbCircle
10
30
20
14
30
0
40
1.25
210
0
220
-0
230
1
0
LINE
5
209
100
AcDbEntity
8
0
100
AcDbLine
10
31.800000056624413
20
10.100000150501728
30
0
11
31.800000056624413
21
10.074999597668647
31
0
0
LINE
5
210
100
AcDbEntity
8
0
100
AcDbLine
10
30
20
9.9250000000000007
30
0
11
28.700000070035458
21
9.9250000000000007
31
0
0
LINE
5
211
100
AcDbEntity
8
0
100
AcDbLine
10
31.54777124726505
20
9.9249995976686485
30
0
11
31.697771247265049
21
9.9249995976686485
31
0
0
LINE
5
212
100
AcDbEntity
8
0
100
AcDbLine
10
30
20
10.074999999999999
30
0
11
28.700000070035458
21
10.074999999999999
31
0
0
LINE
5
213
100
AcDbEntity
8
0
100
AcDbLine
10
10.999999932944775
20
13.999999597668648
30
0
11
10.999999932944775
21
14.074999597668647
31
0
0
CIRCLE
5
214
100
AcDbEntity
8
0
100
AcDbCircle
10
22
20
14
30
0
40
1.25
210
0
220
-0
230
1
0
LINE
5
215
100
AcDbEntity
8
0
100
AcDbLine
10
11.300000049173828
20
14.074999597668647
30
0
11
11.550000052899122
21
14.074999597668647
31
0
0
LINE
5
216
100
AcDbEntity
8
0
100
AcDbLine
10
10.999999932944775
20
14.074999597668647
30
0
11
11.300000049173828
21
14.074999597668647
31
0
0
LINE
5
217
100
AcDbEntity
8
0
100
AcDbLine
10
14
20
10.074999999999999
30
0
11
12.700000070035458
21
10.074999999999999
31
0
0
LINE
5
218
100
AcDbEntity
8
0
100
AcDbLine
10
14.999999932944775
20
10.074999597668647
30
0
11
15.300000049173828
21
10.074999597668647
31
0
0
LINE
5
219
100
AcDbEntity
8
0
100
AcDbLine
10
14.999999932944775
20
9.9249995976686485
30
0
11
15.449999922886491
21
9.9249995976686485
31
0
0
LINE
5
220
100
AcDbEntity
8
0
100
AcDbLine
10
14
20
9.9250000000000007
30
0
11
12.700000070035458
21
9.9235394449130467
31
0
0
LINE
5
221
100
AcDbEntity
8
0
100
AcDbLine
10
14
20
10
30
0
11
14
21
9.9250000000000007
31
0
0
LINE
5
222
100
AcDbEntity
8
0
100
AcDbLine
10
15.300000049173828
20
10.074999597668647
30
0
11
15.550000052899122
21
10.074999597668647
31
0
0
LINE
5
223
100
AcDbEntity
8
0
100
AcDbLine
10
14
20
10
30
0
11
14
21
10.074999999999999
31
0
0
LINE
5
224
100
AcDbEntity
8
0
100
AcDbLine
10
23.800000056624413
20
9.9249995976686485
30
0
11
23.950000056624411
21
9.9249995976686485
31
0
0
LINE
5
225
100
AcDbEntity
8
0
100
AcDbLine
10
22.999999932944775
20
10.074999597668647
30
0
11
23.300000049173828
21
10.074999597668649
31
0
0
LINE
5
226
100
AcDbEntity
8
0
100
AcDbLine
10
23.300000049173828
20
10.074999597668649
30
0
11
23.550000052899122
21
10.074999597668647
31
0
0
LINE
5
227
100
AcDbEntity
8
0
100
AcDbLine
10
23.800000056624413
20
10.100000150501728
30
0
11
23.800000056624413
21
10.074999597668647
31
0
0
LINE
5
228
100
AcDbEntity
8
0
100
AcDbLine
10
23.550000052899122
20
10.074999597668647
30
0
11
23.650000054389238
21
10.074999597668647
31
0
0
LINE
5
229
100
AcDbEntity
8
0
100
AcDbLine
10
23.54777124726505
20
9.9249995976686485
30
0
11
23.697771247265049
21
9.9249995976686485
31
0
0
LINE
5
230
100
AcDbEntity
8
0
100
AcDbLine
10
23.449999922886491
20
9.9249995976686485
30
0
11
23.54777124726505
21
9.9249995976686485
31
0
0
LINE
5
231
100
AcDbEntity
8
0
100
AcDbLine
10
22.999999932944775
20
9.9249995976686485
30
0
11
23.449999922886491
21
9.9249995976686485
31
0
0
LINE
5
232
100
AcDbEntity
8
0
100
AcDbLine
10
23.800000056624413
20
10.074999597668647
30
0
11
23.650000054389238
21
10.074999597668647
31
0
0
LINE
5
233
100
AcDbEntity
8
0
100
AcDbLine
10
23.697771247265049
20
9.9249995976686485
30
0
11
23.800000056624413
21
9.9249995976686485
31
0
0
LINE
5
234
100
AcDbEntity
8
0
100
AcDbLine
10
22.999999932944775
20
9.9999995976686478
30
0
11
22.999999932944775
21
9.9249995976686485
31
0
0
LINE
5
235
100
AcDbEntity
8
0
100
AcDbLine
10
22.999999932944775
20
9.9999995976686478
30
0
11
22.999999932944775
21
10.074999597668647
31
0
0
LINE
5
236
100
AcDbEntity
8
0
100
AcDbLine
10
10
20
1.925
30
0
11
8.7000000700354576
21
1.925
31
0
0
LINE
5
237
100
AcDbEntity
8
0
100
AcDbLine
10
10
20
6.0750000000000002
30
0
11
8.7000000700354576
21
6.0750000000000002
31
0
0
LINE
5
238
100
AcDbEntity
8
0
100
AcDbLine
10
10
20
10.074999999999999
30
0
11
8.7000000700354576
21
10.074999999999999
31
0
0
LINE
5
239
100
AcDbEntity
8
0
100
AcDbLine
10
10
20
14.074999999999999
30
0
11
8.7000000700354576
21
14.074999999999999
31
0
0
LINE
5
240
100
AcDbEntity
8
0
100
AcDbLine
10
4.5500000678002834
20
2.0750000000000002
30
0
11
4.5500000678002834
21
18.074601522083451
31
0
0
LINE
5
241
100
AcDbEntity
8
0
100
AcDbLine
10
24.550000365823507
20
18.074999597668647
30
0
11
24.550000365823507
21
2.0750000000000002
31
0
0
LINE
5
242
100
AcDbEntity
8
0
100
AcDbLine
10
8.3000000640749931
20
19.500000290572643
30
0
11
8.3000000603497028
21
2.0749995976686471
31
0
0
LINE
5
243
100
AcDbEntity
8
0
100
AcDbLine
10
32.050000060349703
20
6.0749995976686471
30
0
11
32.050000060349703
21
19.5
31
0
0
LINE
5
244
100
AcDbEntity
8
0
100
AcDbLine
10
24.450000062584877
20
1.9249995976686485
30
0
11
24.450000062584877
21
19.500000290572643
31
0
0
LINE
5
245
100
AcDbEntity
8
0
100
AcDbLine
10
20.550000306218863
20
2.0750000000000002
30
0
11
20.550000306218863
21
18.079746447617858
31
0
0
LINE
5
246
100
AcDbEntity
8
0
100
AcDbLine
10
12.450000062584877
20
1.9249995976686485
30
0
11
12.450000062584877
21
19.500000290572643
31
0
0
LINE
5
247
100
AcDbEntity
8
0
100
AcDbLine
10
16.050000060349703
20
6.0749995976686471
30
0
11
16.050000060349703
21
19.5
31
0
0
CIRCLE
5
248
100
AcDbEntity
8
0
100
AcDbCircle
10
18
20
10
30
0
40
1.25
210
0
220
-0
230
1
0
LINE
5
249
100
AcDbEntity
8
0
100
AcDbLine
10
10
20
13.925000000000001
30
0
11
8.7000000700354576
21
13.925000000000001
31
0
0
LINE
5
250
100
AcDbEntity
8
0
100
AcDbLine
10
18
20
18
30
0
11
18
21
17.925000000000001
31
0
0
LINE
5
251
100
AcDbEntity
8
0
100
AcDbLine
10
27.300000049173839
20
21.700000323355198
30
0
11
0
21
21.700000323355198
31
0
0
LINE
5
252
100
AcDbEntity
8
0
100
AcDbLine
10
16.550000246614218
20
18.074999999999999
30
0
11
16.700000248849392
21
18.074999999999999
31
0
0
LINE
5
253
100
AcDbEntity
8
0
100
AcDbLine
10
19.300000049173835
20
20.900000311434269
30
0
11
0
21
20.900000311434269
31
0
0
LINE
5
254
100
AcDbEntity
8
0
100
AcDbLine
10
8.7000000700354576
20
5.9249999999999998
30
0
11
8.7000001296401024
21
2.0750000000000002
31
0
0
CIRCLE
5
255
100
AcDbEntity
8
0
100
AcDbCircle
10
10
20
2
30
0
40
1.25
210
0
220
-0
230
1
0
LINE
5
256
100
AcDbEntity
8
0
100
AcDbLine
10
20.700000070035458
20
9.9234736880792305
30
0
11
20.700000070035458
21
6.0750000000000002
31
0
0
CIRCLE
5
257
100
AcDbEntity
8
0
100
AcDbCircle
10
22
20
10
30
0
40
1.25
210
0
220
-0
230
1
0
LINE
5
258
100
AcDbEntity
8
0
100
AcDbLine
10
32.450000062584877
20
1.9249995976686485
30
0
11
32.450000062584877
21
19.500000290572643
31
0
0
LINE
5
259
100
AcDbEntity
8
0
100
AcDbLine
10
24.050000060349703
20
6.0749995976686471
30
0
11
24.050000060349703
21
19.5
31
0
0
LINE
5
260
100
AcDbEntity
8
0
100
AcDbLine
10
8.7000000700354576
20
0.5000000074505806
30
0
11
12.549883099700722
21
0.5000000074505806
31
0
0
LINE
5
261
100
AcDbEntity
8
0
100
AcDbLine
10
10
20
5.9249999999999998
30
0
11
8.7000000700354576
21
5.9249999999999998
31
0
0
LINE
5
262
100
AcDbEntity
8
0
100
AcDbLine
10
18.999999932944775
20
17.999999597668648
30
0
11
18.999999932944775
21
17.924999597668648
31
0
0
LINE
5
263
100
AcDbEntity
8
0
100
AcDbLine
10
18
20
18
30
0
11
18
21
18.074999999999999
31
0
0
CIRCLE
5
264
100
AcDbEntity
8
0
100
AcDbCircle
10
30
20
10
30
0
40
1.25
210
0
220
-0
230
1
0
LINE
5
265
100
AcDbEntity
8
0
100
AcDbLine
10
31.300000049173832
20
22.100000329315662
30
0
11
0
21
22.100000329315662
31
0
0
LINE
5
266
100
AcDbEntity
8
0
100
AcDbLine
10
16
20
0.35000000521540642
30
0
11
0.20000000298023224
21
0.35000000521540642
31
0
0
LINE
5
267
100
AcDbEntity
8
0
100
AcDbLine
10
12.450000062584877
20
20.350000290572645
30
0
11
0
21
20.350000290572645
31
0
0
LINE
5
268
100
AcDbEntity
8
0
100
AcDbLine
10
20.700000070035458
20
5.9249999999999998
30
0
11
20.700000070035458
21
2.0750000000000002
31
0
0
LINE
5
269
100
AcDbEntity
8
0
100
AcDbLine
10
33
20
24
30
0
11
0
21
24
31
0
0
LINE
5
270
100
AcDbEntity
8
0
100
AcDbLine
10
28.700000070035458
20
9.9250000000000007
30
0
11
28.700000070035458
21
6.0750000000000002
31
0
0
CIRCLE
5
271
100
AcDbEntity
8
0
100
AcDbCircle
10
10
20
14
30
0
40
1.25
210
0
220
-0
230
1
0
LINE
5
272
100
AcDbEntity
8
0
100
AcDbLine
10
8.7000000700354576
20
9.9250000000000007
30
0
11
8.7000000700354576
21
6.0750000000000002
31
0
0
LINE
5
273
100
AcDbEntity
8
0
100
AcDbLine
10
12.050000060349703
20
6.0749995976686471
30
0
11
12.050000060349703
21
19.5
31
0
0
LINE
5
274
100
AcDbEntity
8
0
100
AcDbLine
10
23.300000049173835
20
21.300000317394733
30
0
11
0
21
21.300000317394733
31
0
0
LINE
5
275
100
AcDbEntity
8
0
100
AcDbLine
10
16.700000248849392
20
6.0750000000000002
30
0
11
16.700000070035458
21
9.9229203373577981
31
0
0
LINE
5
276
100
AcDbEntity
8
0
100
AcDbLine
10
10
20
2.0750000000000002
30
0
11
8.7000001296401024
21
2.0750000000000002
31
0
0
LINE
5
277
100
AcDbEntity
8
0
100
AcDbLine
10
16.450000062584877
20
20.700000308454037
30
0
11
0
21
20.700000308454037
31
0
0
LINE
5
278
100
AcDbEntity
8
0
100
AcDbLine
10
24.450000062584877
20
21.500000320374966
30
0
11
0
21
21.500000320374966
31
0
0
LINE
5
279
100
AcDbEntity
8
0
100
AcDbLine
10
0.40000000596046448
20
2.0750000000000002
30
0
11
0.40000000596046448
21
5.9249999999999998
31
0
0
LINE
5
280
100
AcDbEntity
8
0
100
AcDbLine
10
11.300000049173832
20
20.150000290572642
30
0
11
0
21
20.150000290572642
31
0
0
LINE
5
281
100
AcDbEntity
8
0
100
AcDbLine
10
12.700000070035458
20
5.9249999999999998
30
0
11
12.700000070035458
21
2.0750000000000002
31
0
0
LINE
5
282
100
AcDbEntity
8
0
100
AcDbLine
10
14.999999932944775
20
18.074999597668647
30
0
11
15.30000004917383
21
18.074999597668647
31
0
0
LINE
5
283
100
AcDbEntity
8
0
100
AcDbLine
10
14.999999932944775
20
17.999999597668648
30
0
11
14.999999932944775
21
17.924999597668648
31
0
0
LINE
5
284
100
AcDbEntity
8
0
100
AcDbLine
10
20.200000060349701
20
19.5
30
0
11
20.200000062584877
21
5.9249995976686485
31
0
0
LINE
5
285
100
AcDbEntity
8
0
100
AcDbLine
10
12.550000070035457
20
18.074999999999999
30
0
11
12.550000067800283
21
2.0749999999999993
31
0
0
LINE
5
286
100
AcDbEntity
8
0
100
AcDbLine
10
8.450000062584877
20
1.9249995976686485
30
0
11
8.450000062584877
21
19.500000290572643
31
0
0
CIRCLE
5
287
100
AcDbEntity
8
0
100
AcDbCircle
10
6
20
10
30
0
40
1.25
210
0
220
-0
230
1
0
CIRCLE
5
288
100
AcDbEntity
8
0
100
AcDbCircle
10
10
20
6
30
0
40
1.25
210
0
220
-0
230
1
0
LINE
5
289
100
AcDbEntity
8
0
100
AcDbLine
10
20.300000064074993
20
19.500000290572643
30
0
11
20.300000060349703
21
2.0749995976686471
31
0
0
LINE
5
290
100
AcDbEntity
8
0
100
AcDbLine
10
0
20
0
30
0
11
33
21
0
31
0
0
LINE
5
291
100
AcDbEntity
8
0
100
AcDbLine
10
8.5500000678002834
20
18.074999999999999
30
0
11
8.5500000678002834
21
2.0749999999999993
31
0
0
LINE
5
292
100
AcDbEntity
8
0
100
AcDbLine
10
4.7000000700354576
20
2.0750000000000002
30
0
11
4.6989421406727434
21
5.9246424532073556
31
0
0
LINE
5
293
100
AcDbEntity
8
0
100
AcDbLine
10
20.450000062584877
20
21.100000314414501
30
0
11
0
21
21.100000314414501
31
0
0
LINE
5
294
100
AcDbEntity
8
0
100
AcDbLine
10
14.999999932944775
20
17.924999597668648
30
0
11
15.449999922886491
21
17.924999597668648
31
0
0
LINE
5
295
100
AcDbEntity
8
0
100
AcDbLine
10
14.999999932944775
20
17.999999597668648
30
0
11
14.999999932944775
21
18.074999597668647
31
0
0
LINE
5
296
100
AcDbEntity
8
0
100
AcDbLine
10
28.450000062584877
20
21.90000032633543
30
0
11
0
21
21.90000032633543
31
0
0
LINE
5
297
100
AcDbEntity
8
0
100
AcDbLine
10
10
20
9.9250000000000007
30
0
11
8.7000000700354576
21
9.9250000000000007
31
0
0
LINE
5
298
100
AcDbEntity
8
0
100
AcDbLine
10
10
20
18.074999999999999
30
0
11
8.5500000678002834
21
18.074999999999999
31
0
0
LINE
5
299
100
AcDbEntity
8
0
100
AcDbLine
10
7.899999912828207
20
6.0749995976686471
30
0
11
8.0500000603497028
21
6.0749995976686471
31
0
0
CIRCLE
5
300
100
AcDbEntity
8
0
100
AcDbCircle
10
10
20
18
30
0
40
1.25
210
0
220
-0
230
1
0
LINE
5
301
100
AcDbEntity
8
0
100
AcDbLine
10
22.999999932944775
20
5.9999995976686478
30
0
11
22.999999932944775
21
5.9249995976686485
31
0
0
LINE
5
302
100
AcDbEntity
8
0
100
AcDbLine
10
3.5500000528991222
20
6.0749995976686471
30
0
11
3.6500000543892384
21
6.0749995976686471
31
0
0
LINE
5
303
100
AcDbEntity
8
0
100
AcDbLine
10
7.8000000566244125
20
1.9249995976686485
30
0
11
7.9500000566244129
21
1.9249995976686485
31
0
0
CIRCLE
5
304
100
AcDbEntity
8
0
100
AcDbCircle
10
2
20
6
30
0
40
1.25
210
0
220
-0
230
1
0
LINE
5
305
100
AcDbEntity
8
0
100
AcDbLine
10
7.9500000566244129
20
5.9249995976686485
30
0
11
8.0499999094754457
21
5.9249995976686485
31
0
0
LINE
5
306
100
AcDbEntity
8
0
100
AcDbLine
10
3.3000000491738297
20
6.0749995976686471
30
0
11
3.5500000528991222
21
6.0749995976686471
31
0
0
LINE
5
307
100
AcDbEntity
8
0
100
AcDbLine
10
8.7000000700354576
20
17.900000266730785
30
0
11
10
21
17.925000000000001
31
0
0
LINE
5
308
100
AcDbEntity
8
0
100
AcDbLine
10
6
20
1.925
30
0
11
4.7000000700354576
21
1.925
31
0
0
LINE
5
309
100
AcDbEntity
8
0
100
AcDbLine
10
22.999999932944775
20
6.0749995976686471
30
0
11
23.300000049173846
21
6.0749995976686035
31
0
0
LINE
5
310
100
AcDbEntity
8
0
100
AcDbLine
10
6
20
6
30
0
11
6
21
5.9249999999999998
31
0
0
LINE
5
311
100
AcDbEntity
8
0
100
AcDbLine
10
22.999999932944775
20
5.9999995976686478
30
0
11
22.999999932944775
21
6.0749995976686471
31
0
0
LINE
5
312
100
AcDbEntity
8
0
100
AcDbLine
10
6.9999999329447746
20
5.9999995976686478
30
0
11
6.9999999329447746
21
5.9249995976686485
31
0
0
LINE
5
313
100
AcDbEntity
8
0
100
AcDbLine
10
15.697771247265049
20
19.5
30
0
11
15.800000056624413
21
19.5
31
0
0
LINE
5
314
100
AcDbEntity
8
0
100
AcDbLine
10
16.700000070035458
20
17.920840674715595
30
0
11
18
21
17.925000000000001
31
0
0
CIRCLE
5
315
100
AcDbEntity
8
0
100
AcDbCircle
10
30
20
6
30
0
40
1.25
210
0
220
-0
230
1
0
LINE
5
316
100
AcDbEntity
8
0
100
AcDbLine
10
6.9999999329447746
20
13.924999597668648
30
0
11
7.4499999228864908
21
13.924999597668648
31
0
0
LINE
5
317
100
AcDbEntity
8
0
100
AcDbLine
10
6.9999999329447746
20
13.999999597668648
30
0
11
6.9999999329447746
21
13.924999597668648
31
0
0
LINE
5
318
100
AcDbEntity
8
0
100
AcDbLine
10
22
20
6
30
0
11
22
21
6.0750000000000002
31
0
0
LINE
5
319
100
AcDbEntity
8
0
100
AcDbLine
10
3.8000000566244125
20
6.0749995976686471
30
0
11
3.6500000543892384
21
6.0749995976686471
31
0
0
LINE
5
320
100
AcDbEntity
8
0
100
AcDbLine
10
15.449999922886491
20
17.924999597668648
30
0
11
15.449999922886491
21
19.500000290572643
31
0
0
LINE
5
321
100
AcDbEntity
8
0
100
AcDbLine
10
8.0500000603497028
20
2.0749995976686471
30
0
11
8.3000000603497028
21
2.0749995976686471
31
0
0
LINE
5
322
100
AcDbEntity
8
0
100
AcDbLine
10
15.950000056624413
20
19.500000290572643
30
0
11
16.050000060349703
21
19.5
31
0
0
CIRCLE
5
323
100
AcDbEntity
8
0
100
AcDbCircle
10
18
20
18
30
0
40
1.25
210
0
220
-0
230
1
0
LINE
5
324
100
AcDbEntity
8
0
100
AcDbLine
10
6
20
6.0750000000000002
30
0
11
4.6989009188204927
21
6.0746424418790808
31
0
0
LINE
5
325
100
AcDbEntity
8
0
100
AcDbLine
10
3.5477712472650493
20
5.9249995976686485
30
0
11
3.6977712472650492
21
5.9249995976686485
31
0
0
LINE
5
326
100
AcDbEntity
8
0
100
AcDbLine
10
16.700000070035458
20
2.0750000000000002
30
0
11
16.700000248849392
21
5.9249999999999998
31
0
0
LINE
5
327
100
AcDbEntity
8
0
100
AcDbLine
10
3.9500000566244124
20
5.9249995976686485
30
0
11
4.0499999094754457
21
5.9249995976686485
31
0
0
LINE
5
328
100
AcDbEntity
8
0
100
AcDbLine
10
7.5500000528991222
20
6.0749995976686471
30
0
11
7.6500000543892384
21
6.0749995976686471
31
0
0
LINE
5
329
100
AcDbEntity
8
0
100
AcDbLine
10
7.8000000566244125
20
5.9249995976686485
30
0
11
7.9500000566244129
21
5.9249995976686485
31
0
0
LINE
5
330
100
AcDbEntity
8
0
100
AcDbLine
10
4.0499999094754457
20
5.9249995976686485
30
0
11
4.200000062584877
21
5.9249995976686485
31
0
0
LINE
5
331
100
AcDbEntity
8
0
100
AcDbLine
10
23.550000052899122
20
6.0749995976686471
30
0
11
23.650000054389238
21
6.0749995976686471
31
0
0
LINE
5
332
100
AcDbEntity
8
0
100
AcDbLine
10
7.6977712472650488
20
1.9249995976686485
30
0
11
7.8000000566244125
21
1.9249995976686485
31
0
0
LINE
5
333
100
AcDbEntity
8
0
100
AcDbLine
10
6
20
5.9249999999999998
30
0
11
4.6989421406727434
21
5.9246424532073556
31
0
0
LINE
5
334
100
AcDbEntity
8
0
100
AcDbLine
10
7.5477712472650493
20
5.9249995976686485
30
0
11
7.6977712472650488
21
5.9249995976686485
31
0
0
CIRCLE
5
335
100
AcDbEntity
8
0
100
AcDbCircle
10
22
20
6
30
0
40
1.25
210
0
220
-0
230
1
0
LINE
5
336
100
AcDbEntity
8
0
100
AcDbLine
10
18
20
18.074999999999999
30
0
11
16.700000248849392
21
18.074999999999999
31
0
0
LINE
5
337
100
AcDbEntity
8
0
100
AcDbLine
10
15.300000049173834
20
20.500000305473804
30
0
11
0
21
20.500000305473804
31
0
0
LINE
5
338
100
AcDbEntity
8
0
100
AcDbLine
10
22
20
6
30
0
11
22
21
5.9249999999999998
31
0
0
LINE
5
339
100
AcDbEntity
8
0
100
AcDbLine
10
7.4499999228864908
20
5.9249995976686485
30
0
11
7.5477712472650493
21
5.9249995976686485
31
0
0
LINE
5
340
100
AcDbEntity
8
0
100
AcDbLine
10
15.300000049173832
20
19.500000290572643
30
0
11
15.300000049173834
21
20.500000305473804
31
0
0
LINE
5
341
100
AcDbEntity
8
0
100
AcDbLine
10
15.30000004917383
20
18.074999597668647
30
0
11
15.300000049173832
21
19.500000290572643
31
0
0
LINE
5
342
100
AcDbEntity
8
0
100
AcDbLine
10
2.9999999329447746
20
5.9249995976686485
30
0
11
3.4499999228864908
21
5.9249995976686485
31
0
0
LINE
5
343
100
AcDbEntity
8
0
100
AcDbLine
10
7.4499999228864908
20
13.924999597668648
30
0
11
7.5477712472650493
21
13.924999597668648
31
0
0
LINE
5
344
100
AcDbEntity
8
0
100
AcDbLine
10
3.6977712472650492
20
5.9249995976686485
30
0
11
3.8000000566244125
21
5.9249995976686485
31
0
0
LINE
5
345
100
AcDbEntity
8
0
100
AcDbLine
10
7.8000000566244125
20
6.0749995976686471
30
0
11
7.6500000543892384
21
6.0749995976686471
31
0
0
LINE
5
346
100
AcDbEntity
8
0
100
AcDbLine
10
28.700000070035458
20
5.9249999999999998
30
0
11
28.700000070035458
21
3.9000000581145287
31
0
0
LINE
5
347
100
AcDbEntity
8
0
100
AcDbLine
10
16.200000060349701
20
19.5
30
0
11
16.300000064074993
21
19.500000290572643
31
0
0
LINE
5
348
100
AcDbEntity
8
0
100
AcDbLine
10
24.700000070035458
20
5.9249999999999998
30
0
11
24.700000070035458
21
2.0750000000000002
31
0
0
LINE
5
349
100
AcDbEntity
8
0
100
AcDbLine
10
32.450000062584877
20
22.300000332295895
30
0
11
0
21
22.300000332295895
31
0
0
LINE
5
350
100
AcDbEntity
8
0
100
AcDbLine
10
16.450000062584877
20
19.500000290572643
30
0
11
16.450000062584877
21
20.700000308454037
31
0
0
LINE
5
351
100
AcDbEntity
8
0
100
AcDbLine
10
7.6977712472650488
20
5.9249995976686485
30
0
11
7.8000000566244125
21
5.9249995976686485
31
0
0
LINE
5
352
100
AcDbEntity
8
0
100
AcDbLine
10
2
20
6
30
0
11
2
21
5.9249999999999998
31
0
0
LINE
5
353
100
AcDbEntity
8
0
100
AcDbLine
10
15.449999922886491
20
19.500000290572643
30
0
11
15.550000052899122
21
19.5
31
0
0
LINE
5
354
100
AcDbEntity
8
0
100
AcDbLine
10
23.300000049173832
20
19.500000290572643
30
0
11
23.300000049173835
21
21.300000317394733
31
0
0
LINE
5
355
100
AcDbEntity
8
0
100
AcDbLine
10
22.999999932944775
20
17.924999597668648
30
0
11
23.449999922886491
21
17.924999597668648
31
0
0
LINE
5
356
100
AcDbEntity
8
0
100
AcDbLine
10
22.999999932944775
20
17.999999597668648
30
0
11
22.999999932944775
21
17.924999597668648
31
0
0
LINE
5
357
100
AcDbEntity
8
0
100
AcDbLine
10
23.449999922886491
20
19.500000290572643
30
0
11
23.550000052899122
21
19.5
31
0
0
LINE
5
358
100
AcDbEntity
8
0
100
AcDbLine
10
23.300000049173828
20
18.074999597668647
30
0
11
23.300000049173832
21
19.500000290572643
31
0
0
LINE
5
359
100
AcDbEntity
8
0
100
AcDbLine
10
22
20
18
30
0
11
22
21
18.074999999999999
31
0
0
LINE
5
360
100
AcDbEntity
8
0
100
AcDbLine
10
10.999999932944775
20
9.9249995976686485
30
0
11
11.449999922886491
21
9.9249995976686485
31
0
0
LINE
5
361
100
AcDbEntity
8
0
100
AcDbLine
10
11.300000049173828
20
10.074999597668647
30
0
11
11.550000052899122
21
10.074999597668647
31
0
0
LINE
5
362
100
AcDbEntity
8
0
100
AcDbLine
10
10.999999932944775
20
9.9999995976686478
30
0
11
10.999999932944775
21
10.074999597668647
31
0
0
LINE
5
363
100
AcDbEntity
8
0
100
AcDbLine
10
11.800000056624413
20
10.100000150501728
30
0
11
11.800000056624413
21
10.074999597668647
31
0
0
LINE
5
364
100
AcDbEntity
8
0
100
AcDbLine
10
10.999999932944775
20
10.074999597668647
30
0
11
11.300000049173828
21
10.074999597668647
31
0
0
LINE
5
365
100
AcDbEntity
8
0
100
AcDbLine
10
10
20
10
30
0
11
10
21
10.074999999999999
31
0
0
LINE
5
366
100
AcDbEntity
8
0
100
AcDbLine
10
10
20
10
30
0
11
10
21
9.9250000000000007
31
0
0
LINE
5
367
100
AcDbEntity
8
0
100
AcDbLine
10
26
20
10.074999999999999
30
0
11
24.700000070035458
21
10.074999999999999
31
0
0
LINE
5
368
100
AcDbEntity
8
0
100
AcDbLine
10
26.999999932944775
20
9.9249995976686485
30
0
11
27.449999922886491
21
9.9249995976686485
31
0
0
LINE
5
369
100
AcDbEntity
8
0
100
AcDbLine
10
26.999999932944775
20
17.999999597668648
30
0
11
26.999999932944775
21
18.074999597668647
31
0
0
LINE
5
370
100
AcDbEntity
8
0
100
AcDbLine
10
27.449999922886491
20
17.924999597668648
30
0
11
27.449999922886491
21
19.500000290572643
31
0
0
LINE
5
371
100
AcDbEntity
8
0
100
AcDbLine
10
28.200000060349701
20
19.5
30
0
11
28.300000064074993
21
19.500000290572643
31
0
0
LINE
5
372
100
AcDbEntity
8
0
100
AcDbLine
10
28.700000070035458
20
18.074999999999999
30
0
11
28.550000425428152
21
18.074999999999999
31
0
0
LINE
5
373
100
AcDbEntity
8
0
100
AcDbLine
10
28.450000062584877
20
19.500000290572643
30
0
11
28.450000062584877
21
21.90000032633543
31
0
0
LINE
5
374
100
AcDbEntity
8
0
100
AcDbLine
10
27.449999922886491
20
19.500000290572643
30
0
11
27.550000052899122
21
19.5
31
0
0
LINE
5
375
100
AcDbEntity
8
0
100
AcDbLine
10
27.300000049173832
20
19.500000290572643
30
0
11
27.300000049173839
21
21.700000323355198
31
0
0
LINE
5
376
100
AcDbEntity
8
0
100
AcDbLine
10
27.950000056624411
20
19.500000290572643
30
0
11
28.050000060349703
21
19.5
31
0
0
LINE
5
377
100
AcDbEntity
8
0
100
AcDbLine
10
27.300000049173828
20
18.074999597668647
30
0
11
27.300000049173832
21
19.500000290572643
31
0
0
LINE
5
378
100
AcDbEntity
8
0
100
AcDbLine
10
26.999999932944775
20
17.999999597668648
30
0
11
26.999999932944775
21
17.924999597668648
31
0
0
LINE
5
379
100
AcDbEntity
8
0
100
AcDbLine
10
27.697771247265049
20
19.5
30
0
11
27.800000056624413
21
19.5
31
0
0
LINE
5
380
100
AcDbEntity
8
0
100
AcDbLine
10
26.999999932944775
20
18.074999597668647
30
0
11
27.300000049173828
21
18.074999597668647
31
0
0
LINE
5
381
100
AcDbEntity
8
0
100
AcDbLine
10
26.999999932944775
20
17.924999597668648
30
0
11
27.449999922886491
21
17.924999597668648
31
0
0
LINE
5
382
100
AcDbEntity
8
0
100
AcDbLine
10
11.800000056624413
20
13.924999597668648
30
0
11
11.800000056624413
21
10.100000150501728
31
0
0
LINE
5
383
100
AcDbEntity
8
0
100
AcDbLine
10
10
20
14
30
0
11
10
21
13.925000000000001
31
0
0
LINE
5
384
100
AcDbEntity
8
0
100
AcDbLine
10
10.999999932944775
20
13.999999597668648
30
0
11
10.999999932944775
21
13.924999597668648
31
0
0
LINE
5
385
100
AcDbEntity
8
0
100
AcDbLine
10
11.449999922886491
20
13.924999597668648
30
0
11
11.54777124726505
21
13.924999597668648
31
0
0
LINE
5
386
100
AcDbEntity
8
0
100
AcDbLine
10
11.54777124726505
20
13.924999597668648
30
0
11
11.697771247265049
21
13.924999597668648
31
0
0
LINE
5
387
100
AcDbEntity
8
0
100
AcDbLine
10
10.999999932944775
20
13.924999597668648
30
0
11
11.449999922886491
21
13.924999597668648
31
0
0
LINE
5
388
100
AcDbEntity
8
0
100
AcDbLine
10
10
20
14
30
0
11
10
21
14.074999999999999
31
0
0
LINE
5
389
100
AcDbEntity
8
0
100
AcDbLine
10
28.450000062584877
20
1.9249995976686485
30
0
11
28.450000062584877
21
19.500000290572643
31
0
0
LINE
5
390
100
AcDbEntity
8
0
100
AcDbLine
10
11.800000056624413
20
10.074999597668647
30
0
11
11.650000054389238
21
10.074999597668647
31
0
0
LINE
5
391
100
AcDbEntity
8
0
100
AcDbLine
10
11.800000056624413
20
9.9249995976686485
30
0
11
11.950000056624413
21
9.9249995976686485
31
0
0
LINE
5
392
100
AcDbEntity
8
0
100
AcDbLine
10
11.697771247265049
20
9.9249995976686485
30
0
11
11.800000056624413
21
9.9249995976686485
31
0
0
LINE
5
393
100
AcDbEntity
8
0
100
AcDbLine
10
11.54777124726505
20
9.9249995976686485
30
0
11
11.697771247265049
21
9.9249995976686485
31
0
0
LINE
5
394
100
AcDbEntity
8
0
100
AcDbLine
10
10.999999932944775
20
9.9999995976686478
30
0
11
10.999999932944775
21
9.9249995976686485
31
0
0
LINE
5
395
100
AcDbEntity
8
0
100
AcDbLine
10
11.550000052899122
20
10.074999597668647
30
0
11
11.650000054389238
21
10.074999597668647
31
0
0
LINE
5
396
100
AcDbEntity
8
0
100
AcDbLine
10
11.449999922886491
20
9.9249995976686485
30
0
11
11.54777124726505
21
9.9249995976686485
31
0
0
LINE
5
397
100
AcDbEntity
8
0
100
AcDbLine
10
19.54777124726505
20
1.9249995976686485
30
0
11
19.697771247265049
21
1.9249995976686485
31
0
0
LINE
5
398
100
AcDbEntity
8
0
100
AcDbLine
10
30.999999932944775
20
5.9999995976686478
30
0
11
30.999999932944775
21
6.0749995976686471
31
0
0
LINE
5
399
100
AcDbEntity
8
0
100
AcDbLine
10
15.899999912828207
20
6.0749995976686471
30
0
11
16.050000060349703
21
6.0749995976686471
31
0
0
CIRCLE
5
400
100
AcDbEntity
8
0
100
AcDbCircle
10
26
20
2
30
0
40
1.25
210
0
220
-0
230
1
0
LINE
5
401
100
AcDbEntity
8
0
100
AcDbLine
10
11.800000056624413
20
6.0749995976686471
30
0
11
11.650000054389238
21
6.0749995976686471
31
0
0
LINE
5
402
100
AcDbEntity
8
0
100
AcDbLine
10
3.4499999228864908
20
1.9249995976686485
30
0
11
3.5477712472650493
21
1.9249995976686485
31
0
0
LINE
5
403
100
AcDbEntity
8
0
100
AcDbLine
10
3.3000000491738302
20
10.074999597668647
30
0
11
3.5500000528991222
21
10.074999597668647
31
0
0
LINE
5
404
100
AcDbEntity
8
0
100
AcDbLine
10
11.800000056624413
20
6.0749995976686471
30
0
11
11.899999912828207
21
6.0749995976686471
31
0
0
LINE
5
405
100
AcDbEntity
8
0
100
AcDbLine
10
3.8000000566244125
20
10.100000150501728
30
0
11
3.8000000566244125
21
10.074999597668647
31
0
0
LINE
5
406
100
AcDbEntity
8
0
100
AcDbLine
10
18.999999932944775
20
6.0749995976686471
30
0
11
19.300000049173846
21
6.0749995976686035
31
0
0
LINE
5
407
100
AcDbEntity
8
0
100
AcDbLine
10
14
20
5.9249999999999998
30
0
11
12.700000070035458
21
5.9249999999999998
31
0
0
LINE
5
408
100
AcDbEntity
8
0
100
AcDbLine
10
15.550000052899122
20
14.074999597668647
30
0
11
15.550000052899122
21
19.5
31
0
0
LINE
5
409
100
AcDbEntity
8
0
100
AcDbLine
10
15.697771247265049
20
13.924999597668648
30
0
11
15.697771247265049
21
19.5
31
0
0
LINE
5
410
100
AcDbEntity
8
0
100
AcDbLine
10
30.999999932944775
20
6.0749995976686471
30
0
11
31.300000049172965
21
6.0749995976725657
31
0
0
LINE
5
411
100
AcDbEntity
8
0
100
AcDbLine
10
11.899999912828207
20
6.0749995976686471
30
0
11
12.050000060349703
21
6.0749995976686471
31
0
0
LINE
5
412
100
AcDbEntity
8
0
100
AcDbLine
10
2.9999999329447746
20
9.9999995976686478
30
0
11
2.9999999329447746
21
9.9249995976686485
31
0
0
LINE
5
413
100
AcDbEntity
8
0
100
AcDbLine
10
30.999999932944775
20
5.9999995976686478
30
0
11
30.999999932944775
21
5.9249995976686485
31
0
0
LINE
5
414
100
AcDbEntity
8
0
100
AcDbLine
10
18
20
1.925
30
0
11
16.700000070035458
21
1.925
31
0
0
LINE
5
415
100
AcDbEntity
8
0
100
AcDbLine
10
18
20
6.0750000000000002
30
0
11
16.700000248849392
21
6.0750000000000002
31
0
0
LINE
5
416
100
AcDbEntity
8
0
100
AcDbLine
10
2.9999999329447746
20
9.9249995976686485
30
0
11
3.4499999228864908
21
9.9249995976686485
31
0
0
LINE
5
417
100
AcDbEntity
8
0
100
AcDbLine
10
30
20
6
30
0
11
30
21
5.9249999999999998
31
0
0
LINE
5
418
100
AcDbEntity
8
0
100
AcDbLine
10
16.049999909475446
20
5.9249995976686485
30
0
11
16.200000062584877
21
5.9249995976686485
31
0
0
LINE
5
419
100
AcDbEntity
8
0
100
AcDbLine
10
27.54777124726505
20
5.9249995976686485
30
0
11
27.697771247265049
21
5.9249995976686485
31
0
0
LINE
5
420
100
AcDbEntity
8
0
100
AcDbLine
10
3.6977712472650492
20
9.9249995976686485
30
0
11
3.8000000566244125
21
9.9249995976686485
31
0
0
LINE
5
421
100
AcDbEntity
8
0
100
AcDbLine
10
14
20
6.0750000000000002
30
0
11
12.700000070035458
21
6.0750000000000002
31
0
0
LINE
5
422
100
AcDbEntity
8
0
100
AcDbLine
10
18
20
6
30
0
11
18
21
5.9249999999999998
31
0
0
LINE
5
423
100
AcDbEntity
8
0
100
AcDbLine
10
4.0500000603497028
20
2.0749995976686471
30
0
11
4.3000000603497028
21
2.0749995976686471
31
0
0
LINE
5
424
100
AcDbEntity
8
0
100
AcDbLine
10
18
20
6
30
0
11
18
21
6.0750000000000002
31
0
0
LINE
5
425
100
AcDbEntity
8
0
100
AcDbLine
10
20.049999909475446
20
1.9249995976686485
30
0
11
20.200000062584877
21
1.9249995976686485
31
0
0
LINE
5
426
100
AcDbEntity
8
0
100
AcDbLine
10
11.950000056624413
20
5.9249995976686485
30
0
11
12.049999909475446
21
5.9249995976686485
31
0
0
LINE
5
427
100
AcDbEntity
8
0
100
AcDbLine
10
14
20
6
30
0
11
14
21
6.0750000000000002
31
0
0
LINE
5
428
100
AcDbEntity
8
0
100
AcDbLine
10
12.049999909475446
20
5.9249995976686485
30
0
11
12.200000062584877
21
5.9249995976686485
31
0
0
LINE
5
429
100
AcDbEntity
8
0
100
AcDbLine
10
14
20
6
30
0
11
14
21
5.9249999999999998
31
0
0
LINE
5
430
100
AcDbEntity
8
0
100
AcDbLine
10
22.999999932944775
20
1.9999995976686478
30
0
11
22.999999932944775
21
2.0749995976686471
31
0
0
LINE
5
431
100
AcDbEntity
8
0
100
AcDbLine
10
8.7000000700354576
20
17.900000266730785
30
0
11
8.7000000700354576
21
14.074999999999999
31
0
0
LINE
5
432
100
AcDbEntity
8
0
100
AcDbLine
10
0.40000000596046448
20
10.074999999999999
30
0
11
0.40000000596046448
21
13.925000000000001
31
0
0
LINE
5
433
100
AcDbEntity
8
0
100
AcDbLine
10
22.999999932944775
20
1.9999995976686478
30
0
11
22.999999932944775
21
1.9249995976686485
31
0
0
LINE
5
434
100
AcDbEntity
8
0
100
AcDbLine
10
11.550000052899122
20
14.074999597668647
30
0
11
11.550000052899122
21
19.5
31
0
0
LINE
5
435
100
AcDbEntity
8
0
100
AcDbLine
10
16.700000070035458
20
17.920840674715595
30
0
11
16.700000070035458
21
14.074999999999999
31
0
0
LINE
5
436
100
AcDbEntity
8
0
100
AcDbLine
10
20.050000060349703
20
2.0749995976686471
30
0
11
20.300000060349703
21
2.0749995976686471
31
0
0
LINE
5
437
100
AcDbEntity
8
0
100
AcDbLine
10
19.950000056624411
20
9.9249995976686485
30
0
11
19.950000056624411
21
19.500000290572643
31
0
0
LINE
5
438
100
AcDbEntity
8
0
100
AcDbLine
10
19.300000049173846
20
6.0749995976686035
30
0
11
19.550000052899122
21
6.0749995976686471
31
0
0
LINE
5
439
100
AcDbEntity
8
0
100
AcDbLine
10
19.300000049173832
20
2.0749995976686257
30
0
11
19.550000052899122
21
2.0749995976686471
31
0
0
CIRCLE
5
440
100
AcDbEntity
8
0
100
AcDbCircle
10
6
20
14
30
0
40
1.25
210
0
220
-0
230
1
0
LINE
5
441
100
AcDbEntity
8
0
100
AcDbLine
10
19.54777124726505
20
5.9249995976686485
30
0
11
19.697771247265049
21
5.9249995976686485
31
0
0
LINE
5
442
100
AcDbEntity
8
0
100
AcDbLine
10
19.550000052899122
20
14.074999597668647
30
0
11
19.550000052899122
21
19.5
31
0
0
LINE
5
443
100
AcDbEntity
8
0
100
AcDbLine
10
30
20
6
30
0
11
30
21
6.0750000000000002
31
0
0
LINE
5
444
100
AcDbEntity
8
0
100
AcDbLine
10
12.700000070035458
20
17.922078889826093
30
0
11
12.700000070035458
21
14.074999999999999
31
0
0
LINE
5
445
100
AcDbEntity
8
0
100
AcDbLine
10
3.8000000566244125
20
10.074999597668647
30
0
11
3.6500000543892384
21
10.074999597668647
31
0
0
LINE
5
446
100
AcDbEntity
8
0
100
AcDbLine
10
3.8000000566244125
20
1.9249995976686485
30
0
11
3.9500000566244124
21
1.9249995976686485
31
0
0
LINE
5
447
100
AcDbEntity
8
0
100
AcDbLine
10
2.9999999329447746
20
9.9999995976686478
30
0
11
2.9999999329447746
21
10.074999597668647
31
0
0
LINE
5
448
100
AcDbEntity
8
0
100
AcDbLine
10
7.3000000491738302
20
14.074999597668647
30
0
11
7.5500000528991222
21
14.074999597668647
31
0
0
LINE
5
449
100
AcDbEntity
8
0
100
AcDbLine
10
18.999999932944775
20
1.9249995976686485
30
0
11
19.449999922886491
21
1.9249995976686485
31
0
0
LINE
5
450
100
AcDbEntity
8
0
100
AcDbLine
10
23.950000056624411
20
9.9249995976686485
30
0
11
23.950000056624411
21
19.500000290572643
31
0
0
LINE
5
451
100
AcDbEntity
8
0
100
AcDbLine
10
3.8000000566244125
20
9.9249995976686485
30
0
11
3.9500000566244124
21
9.9249995976686485
31
0
0
LINE
5
452
100
AcDbEntity
8
0
100
AcDbLine
10
15.950000056624413
20
9.9249995976686485
30
0
11
15.950000056624413
21
19.500000290572643
31
0
0
LINE
5
453
100
AcDbEntity
8
0
100
AcDbLine
10
27.300000049173846
20
6.0749995976686035
30
0
11
27.550000052899122
21
6.0749995976686471
31
0
0
LINE
5
454
100
AcDbEntity
8
0
100
AcDbLine
10
3.4499999228864908
20
9.9249995976686485
30
0
11
3.5477712472650493
21
9.9249995976686485
31
0
0
LINE
5
455
100
AcDbEntity
8
0
100
AcDbLine
10
2.9999999329447746
20
10.074999597668647
30
0
11
3.3000000491738302
21
10.074999597668647
31
0
0
LINE
5
456
100
AcDbEntity
8
0
100
AcDbLine
10
11.800000056624413
20
5.9249995976686485
30
0
11
11.950000056624413
21
5.9249995976686485
31
0
0
LINE
5
457
100
AcDbEntity
8
0
100
AcDbLine
10
18
20
2.0750000000000002
30
0
11
16.700000070035458
21
2.0750000000000002
31
0
0
LINE
5
458
100
AcDbEntity
8
0
100
AcDbLine
10
11.697771247265049
20
5.9249995976686485
30
0
11
11.800000056624413
21
5.9249995976686485
31
0
0
LINE
5
459
100
AcDbEntity
8
0
100
AcDbLine
10
23.550000052899122
20
2.0749995976686471
30
0
11
23.650000054389238
21
2.0749995976686471
31
0
0
LINE
5
460
100
AcDbEntity
8
0
100
AcDbLine
10
6.9999999329447746
20
14.074999597668647
30
0
11
7.3000000491738302
21
14.074999597668647
31
0
0
LINE
5
461
100
AcDbEntity
8
0
100
AcDbLine
10
15.950000056624413
20
5.9249995976686485
30
0
11
16.049999909475446
21
5.9249995976686485
31
0
0
LINE
5
462
100
AcDbEntity
8
0
100
AcDbLine
10
18
20
2
30
0
11
18
21
1.925
31
0
0
LINE
5
463
100
AcDbEntity
8
0
100
AcDbLine
10
31.449999922886491
20
5.9249995976686485
30
0
11
31.54777124726505
21
5.9249995976686485
31
0
0
LINE
5
464
100
AcDbEntity
8
0
100
AcDbLine
10
3.5477712472650493
20
9.9249995976686485
30
0
11
3.6977712472650492
21
9.9249995976686485
31
0
0
LINE
5
465
100
AcDbEntity
8
0
100
AcDbLine
10
10.999999932944775
20
5.9999995976686478
30
0
11
10.999999932944775
21
6.0749995976686471
31
0
0
LINE
5
466
100
AcDbEntity
8
0
100
AcDbLine
10
16.550000246614218
20
2.0750000000000002
30
0
11
16.550000246614218
21
0.5000000074505806
31
0
0
LINE
5
467
100
AcDbEntity
8
0
100
AcDbLine
10
10.999999932944775
20
5.9249995976686485
30
0
11
11.449999922886491
21
5.9249995976686485
31
0
0
LINE
5
468
100
AcDbEntity
8
0
100
AcDbLine
10
15.950000056624413
20
1.9249995976686485
30
0
11
16.049999909475446
21
1.9249995976686485
31
0
0
LINE
5
469
100
AcDbEntity
8
0
100
AcDbLine
10
7.4499999228864908
20
19.500000290572643
30
0
11
7.5500000528991222
21
19.5
31
0
0
LINE
5
470
100
AcDbEntity
8
0
100
AcDbLine
10
24.700000070035458
20
0.5000000074505806
30
0
11
28.550000425428152
21
0.5000000074505806
31
0
0
LINE
5
471
100
AcDbEntity
8
0
100
AcDbLine
10
15.800000056624413
20
5.9249995976686485
30
0
11
15.950000056624413
21
5.9249995976686485
31
0
0
LINE
5
472
100
AcDbEntity
8
0
100
AcDbLine
10
31.800000056624413
20
6.0749995976686471
30
0
11
31.899999912828207
21
6.0749995976686471
31
0
0
LINE
5
473
100
AcDbEntity
8
0
100
AcDbLine
10
7.3000000491738319
20
19.800000295042992
30
0
11
0
21
19.800000295042992
31
0
0
LINE
5
474
100
AcDbEntity
8
0
100
AcDbLine
10
7.9500000566244129
20
19.500000290572643
30
0
11
8.0500000603497028
21
19.5
31
0
0
LINE
5
475
100
AcDbEntity
8
0
100
AcDbLine
10
2
20
9.9250000000000007
30
0
11
0.40000000596046448
21
9.9250000000000007
31
0
0
LINE
5
476
100
AcDbEntity
8
0
100
AcDbLine
10
31.899999912828207
20
6.0749995976686471
30
0
11
32.050000060349703
21
6.0749995976686471
31
0
0
LINE
5
477
100
AcDbEntity
8
0
100
AcDbLine
10
7.6977712472650488
20
19.5
30
0
11
7.8000000566244125
21
19.5
31
0
0
LINE
5
478
100
AcDbEntity
8
0
100
AcDbLine
10
15.697771247265049
20
1.9249995976686485
30
0
11
15.800000056624413
21
1.9249995976686485
31
0
0
LINE
5
479
100
AcDbEntity
8
0
100
AcDbLine
10
31.697771247265049
20
5.9249995976686485
30
0
11
31.800000056624413
21
5.9249995976686485
31
0
0
LINE
5
480
100
AcDbEntity
8
0
100
AcDbLine
10
23.449999922886491
20
1.9249995976686485
30
0
11
23.54777124726505
21
1.9249995976686485
31
0
0
LINE
5
481
100
AcDbEntity
8
0
100
AcDbLine
10
15.800000056624413
20
6.0749995976686471
30
0
11
15.899999912828207
21
6.0749995976686471
31
0
0
LINE
5
482
100
AcDbEntity
8
0
100
AcDbLine
10
26.999999932944775
20
1.9249995976686485
30
0
11
27.449999922886491
21
1.9249995976686485
31
0
0
LINE
5
483
100
AcDbEntity
8
0
100
AcDbLine
10
31.950000056624411
20
5.9249995976686485
30
0
11
32.049999909475446
21
5.9249995976686485
31
0
0
LINE
5
484
100
AcDbEntity
8
0
100
AcDbLine
10
7.3000000491738319
20
19.500000290572643
30
0
11
7.3000000491738319
21
19.800000295042992
31
0
0
LINE
5
485
100
AcDbEntity
8
0
100
AcDbLine
10
14.999999932944775
20
5.9999995976686478
30
0
11
14.999999932944775
21
5.9249995976686485
31
0
0
LINE
5
486
100
AcDbEntity
8
0
100
AcDbLine
10
10
20
6
30
0
11
10
21
5.9249999999999998
31
0
0
LINE
5
487
100
AcDbEntity
8
0
100
AcDbLine
10
6.9999999329447746
20
17.999999597668648
30
0
11
6.9999999329447746
21
17.924999597668648
31
0
0
CIRCLE
5
488
100
AcDbEntity
8
0
100
AcDbCircle
10
30
20
2
30
0
40
1.25
210
0
220
-0
230
1
0
LINE
5
489
100
AcDbEntity
8
0
100
AcDbLine
10
16.700000070035458
20
0.5000000074505806
30
0
11
20.550000306218863
21
0.5000000074505806
31
0
0
LINE
5
490
100
AcDbEntity
8
0
100
AcDbLine
10
6.9999999329447746
20
18.074999597668647
30
0
11
7.3000000491738311
21
18.074999597668647
31
0
0
LINE
5
491
100
AcDbEntity
8
0
100
AcDbLine
10
10.999999932944775
20
5.9999995976686478
30
0
11
10.999999932944775
21
5.9249995976686485
31
0
0
LINE
5
492
100
AcDbEntity
8
0
100
AcDbLine
10
31.800000056624413
20
5.9249995976686485
30
0
11
31.950000056624411
21
5.9249995976686485
31
0
0
LINE
5
493
100
AcDbEntity
8
0
100
AcDbLine
10
23.300000049173832
20
2.0749995976686257
30
0
11
23.550000052899122
21
2.0749995976686471
31
0
0
LINE
5
494
100
AcDbEntity
8
0
100
AcDbLine
10
22.999999932944775
20
2.0749995976686471
30
0
11
23.300000049173832
21
2.0749995976686257
31
0
0
LINE
5
495
100
AcDbEntity
8
0
100
AcDbLine
10
26.999999932944775
20
1.9999995976686478
30
0
11
26.999999932944775
21
2.0749995976686471
31
0
0
LINE
5
496
100
AcDbEntity
8
0
100
AcDbLine
10
11.449999922886491
20
5.9249995976686485
30
0
11
11.54777124726505
21
5.9249995976686485
31
0
0
LINE
5
497
100
AcDbEntity
8
0
100
AcDbLine
10
23.800000056624413
20
2.0749995976686471
30
0
11
23.899999912828207
21
2.0749995976686471
31
0
0
LINE
5
498
100
AcDbEntity
8
0
100
AcDbLine
10
23.697771247265049
20
1.9249995976686485
30
0
11
23.800000056624413
21
1.9249995976686485
31
0
0
LINE
5
499
100
AcDbEntity
8
0
100
AcDbLine
10
16.049999909475446
20
1.9249995976686485
30
0
11
16.200000062584877
21
1.9249995976686485
31
0
0
LINE
5
500
100
AcDbEntity
8
0
100
AcDbLine
10
11.550000052899122
20
6.0749995976686471
30
0
11
11.650000054389238
21
6.0749995976686471
31
0
0
LINE
5
501
100
AcDbEntity
8
0
100
AcDbLine
10
15.697771247265049
20
5.9249995976686485
30
0
11
15.800000056624413
21
5.9249995976686485
31
0
0
LINE
5
502
100
AcDbEntity
8
0
100
AcDbLine
10
31.550000052899122
20
6.0749995976686471
30
0
11
31.650000054389238
21
6.0749995976686471
31
0
0
LINE
5
503
100
AcDbEntity
8
0
100
AcDbLine
10
3.5500000528991222
20
10.074999597668647
30
0
11
3.6500000543892384
21
10.074999597668647
31
0
0
LINE
5
504
100
AcDbEntity
8
0
100
AcDbLine
10
16.700000070035458
20
1.925
30
0
11
16.700000070035458
21
0.5000000074505806
31
0
0
LINE
5
505
100
AcDbEntity
8
0
100
AcDbLine
10
32.049999909475446
20
5.9249995976686485
30
0
11
32.200000062584877
21
5.9249995976686485
31
0
0
LINE
5
506
100
AcDbEntity
8
0
100
AcDbLine
10
11.300000049173828
20
6.0749995976686479
30
0
11
11.550000052899122
21
6.0749995976686471
31
0
0
LINE
5
507
100
AcDbEntity
8
0
100
AcDbLine
10
15.800000056624413
20
6.0749995976686471
30
0
11
15.650000054389238
21
6.0749995976686471
31
0
0
LINE
5
508
100
AcDbEntity
8
0
100
AcDbLine
10
22.999999932944775
20
1.9249995976686485
30
0
11
23.449999922886491
21
1.9249995976686485
31
0
0
LINE
5
509
100
AcDbEntity
8
0
100
AcDbLine
10
27.449999922886491
20
1.9249995976686485
30
0
11
27.54777124726505
21
1.9249995976686485
31
0
0
LINE
5
510
100
AcDbEntity
8
0
100
AcDbLine
10
15.800000056624413
20
2.0749995976686471
30
0
11
15.899999912828207
21
2.0749995976686471
31
0
0
LINE
5
511
100
AcDbEntity
8
0
100
AcDbLine
10
8.450000062584877
20
19.500000290572643
30
0
11
8.450000062584877
21
20.000000298023224
31
0
0
LINE
5
512
100
AcDbEntity
8
0
100
AcDbLine
10
26.999999932944775
20
1.9999995976686478
30
0
11
26.999999932944775
21
1.9249995976686485
31
0
0
LINE
5
513
100
AcDbEntity
8
0
100
AcDbLine
10
8.3000000640749931
20
19.500000290572643
30
0
11
8.2000000603497032
21
19.5
31
0
0
LINE
5
514
100
AcDbEntity
8
0
100
AcDbLine
10
15.449999922886491
20
5.9249995976686485
30
0
11
15.54777124726505
21
5.9249995976686485
31
0
0
LINE
5
515
100
AcDbEntity
8
0
100
AcDbLine
10
27.300000049173832
20
2.0749995976686257
30
0
11
27.550000052899122
21
2.0749995976686471
31
0
0
LINE
5
516
100
AcDbEntity
8
0
100
AcDbLine
10
15.550000052899122
20
6.0749995976686471
30
0
11
15.650000054389238
21
6.0749995976686471
31
0
0
LINE
5
517
100
AcDbEntity
8
0
100
AcDbLine
10
23.54777124726505
20
1.9249995976686485
30
0
11
23.697771247265049
21
1.9249995976686485
31
0
0
LINE
5
518
100
AcDbEntity
8
0
100
AcDbLine
10
23.950000056624411
20
1.9249995976686485
30
0
11
24.049999909475446
21
1.9249995976686485
31
0
0
LINE
5
519
100
AcDbEntity
8
0
100
AcDbLine
10
10
20
6
30
0
11
10
21
6.0750000000000002
31
0
0
LINE
5
520
100
AcDbEntity
8
0
100
AcDbLine
10
18
20
2
30
0
11
18
21
2.0750000000000002
31
0
0
LINE
5
521
100
AcDbEntity
8
0
100
AcDbLine
10
6.9999999329447746
20
17.924999597668648
30
0
11
7.4499999228864908
21
17.924999597668648
31
0
0
LINE
5
522
100
AcDbEntity
8
0
100
AcDbLine
10
2
20
10.074999999999999
30
0
11
0.40000000596046448
21
10.074999999999999
31
0
0
LINE
5
523
100
AcDbEntity
8
0
100
AcDbLine
10
10.999999932944775
20
6.0749995976686471
30
0
11
11.300000049173828
21
6.0749995976686479
31
0
0
LINE
5
524
100
AcDbEntity
8
0
100
AcDbLine
10
6
20
17.925000000000001
30
0
11
4.695644392492718
21
17.924641546945367
31
0
0
LINE
5
525
100
AcDbEntity
8
0
100
AcDbLine
10
24.050000060349703
20
2.0749995976686471
30
0
11
24.300000060349703
21
2.0749995976686471
31
0
0
LINE
5
526
100
AcDbEntity
8
0
100
AcDbLine
10
15.800000056624413
20
1.9249995976686485
30
0
11
15.950000056624413
21
1.9249995976686485
31
0
0
LINE
5
527
100
AcDbEntity
8
0
100
AcDbLine
10
15.899999912828207
20
2.0749995976686471
30
0
11
16.050000060349703
21
2.0749995976686471
31
0
0
LINE
5
528
100
AcDbEntity
8
0
100
AcDbLine
10
23.800000056624413
20
2.0749995976686471
30
0
11
23.650000054389238
21
2.0749995976686471
31
0
0
LINE
5
529
100
AcDbEntity
8
0
100
AcDbLine
10
27.550000052899122
20
2.0749995976686471
30
0
11
27.650000054389238
21
2.0749995976686471
31
0
0
LINE
5
530
100
AcDbEntity
8
0
100
AcDbLine
10
14.999999932944775
20
1.9249995976686485
30
0
11
15.449999922886491
21
1.9249995976686485
31
0
0
LINE
5
531
100
AcDbEntity
8
0
100
AcDbLine
10
26
20
1.925
30
0
11
24.700000070035458
21
1.925
31
0
0
LINE
5
532
100
AcDbEntity
8
0
100
AcDbLine
10
31.550000052899122
20
2.0749995976686471
30
0
11
31.650000054389238
21
2.0749995976686471
31
0
0
LINE
5
533
100
AcDbEntity
8
0
100
AcDbLine
10
15.54777124726505
20
5.9249995976686485
30
0
11
15.697771247265049
21
5.9249995976686485
31
0
0
LINE
5
534
100
AcDbEntity
8
0
100
AcDbLine
10
31.800000056624413
20
2.0749995976686471
30
0
11
31.650000054389238
21
2.0749995976686471
31
0
0
LINE
5
535
100
AcDbEntity
8
0
100
AcDbLine
10
14
20
2
30
0
11
14
21
2.0750000000000002
31
0
0
LINE
5
536
100
AcDbEntity
8
0
100
AcDbLine
10
7.4499999228864908
20
17.924999597668648
30
0
11
7.4499999228864908
21
19.500000290572643
31
0
0
LINE
5
537
100
AcDbEntity
8
0
100
AcDbLine
10
15.300000049173828
20
6.0749995976686479
30
0
11
15.550000052899122
21
6.0749995976686471
31
0
0
LINE
5
538
100
AcDbEntity
8
0
100
AcDbLine
10
23.899999912828207
20
2.0749995976686471
30
0
11
24.050000060349703
21
2.0749995976686471
31
0
0
LINE
5
539
100
AcDbEntity
8
0
100
AcDbLine
10
14
20
2
30
0
11
14
21
1.925
31
0
0
LINE
5
540
100
AcDbEntity
8
0
100
AcDbLine
10
30.999999932944775
20
2.0749995976686471
30
0
11
31.300000049173683
21
2.0749995976705673
31
0
0
LINE
5
541
100
AcDbEntity
8
0
100
AcDbLine
10
27.950000056624411
20
1.9249995976686485
30
0
11
28.049999909475446
21
1.9249995976686485
31
0
0
LINE
5
542
100
AcDbEntity
8
0
100
AcDbLine
10
14.999999932944775
20
2.0749995976686471
30
0
11
15.300000049173828
21
2.0749995976686475
31
0
0
LINE
5
543
100
AcDbEntity
8
0
100
AcDbLine
10
24.700000070035458
20
1.925
30
0
11
24.700000070035458
21
0.5000000074505806
31
0
0
LINE
5
544
100
AcDbEntity
8
0
100
AcDbLine
10
6
20
14.074999999999999
30
0
11
4.6967024200338097
21
14.074641837704419
31
0
0
LINE
5
545
100
AcDbEntity
8
0
100
AcDbLine
10
3.4499999228864908
20
17.924999597668648
30
0
11
3.4499999228864908
21
19.500000290572643
31
0
0
LINE
5
546
100
AcDbEntity
8
0
100
AcDbLine
10
3.3000000491738311
20
14.074999597668647
30
0
11
3.5500000528991222
21
14.074999597668647
31
0
0
LINE
5
547
100
AcDbEntity
8
0
100
AcDbLine
10
27.800000056624413
20
1.9249995976686485
30
0
11
27.950000056624411
21
1.9249995976686485
31
0
0
LINE
5
548
100
AcDbEntity
8
0
100
AcDbLine
10
27.697771247265049
20
1.9249995976686485
30
0
11
27.800000056624413
21
1.9249995976686485
31
0
0
LINE
5
549
100
AcDbEntity
8
0
100
AcDbLine
10
4.5500000678002834
20
18.074601522083451
30
0
11
6
21
18.074999999999999
31
0
0
LINE
5
550
100
AcDbEntity
8
0
100
AcDbLine
10
8.450000062584877
20
20.000000298023224
30
0
11
0
21
20.000000298023224
31
0
0
LINE
5
551
100
AcDbEntity
8
0
100
AcDbLine
10
31.54777124726505
20
5.9249995976686485
30
0
11
31.697771247265049
21
5.9249995976686485
31
0
0
LINE
5
552
100
AcDbEntity
8
0
100
AcDbLine
10
14.999999932944775
20
5.9999995976686478
30
0
11
14.999999932944775
21
6.0749995976686471
31
0
0
LINE
5
553
100
AcDbEntity
8
0
100
AcDbLine
10
6
20
18
30
0
11
6
21
17.925000000000001
31
0
0
LINE
5
554
100
AcDbEntity
8
0
100
AcDbLine
10
16.050000060349703
20
2.0749995976686471
30
0
11
16.300000060349703
21
2.0749995976686471
31
0
0
LINE
5
555
100
AcDbEntity
8
0
100
AcDbLine
10
7.3000000491738311
20
18.074999597668647
30
0
11
7.3000000491738319
21
19.500000290572643
31
0
0
CIRCLE
5
556
100
AcDbEntity
8
0
100
AcDbCircle
10
18
20
2
30
0
40
1.25
210
0
220
-0
230
1
0
LINE
5
557
100
AcDbEntity
8
0
100
AcDbLine
10
27.899999912828207
20
2.0749995976686471
30
0
11
28.050000060349703
21
2.0749995976686471
31
0
0
LINE
5
558
100
AcDbEntity
8
0
100
AcDbLine
10
30.999999932944775
20
1.9999995976686478
30
0
11
30.999999932944775
21
2.0749995976686471
31
0
0
LINE
5
559
100
AcDbEntity
8
0
100
AcDbLine
10
15.54777124726505
20
1.9249995976686485
30
0
11
15.697771247265049
21
1.9249995976686485
31
0
0
LINE
5
560
100
AcDbEntity
8
0
100
AcDbLine
10
15.550000052899122
20
2.0749995976686471
30
0
11
15.650000054389238
21
2.0749995976686471
31
0
0
LINE
5
561
100
AcDbEntity
8
0
100
AcDbLine
10
28.700000070035458
20
0.5000000074505806
30
0
11
28.700000070035458
21
0.35000000521540642
31
0
0
LINE
5
562
100
AcDbEntity
8
0
100
AcDbLine
10
27.800000056624413
20
2.0749995976686471
30
0
11
27.899999912828207
21
2.0749995976686471
31
0
0
LINE
5
563
100
AcDbEntity
8
0
100
AcDbLine
10
26
20
2.0750000000000002
30
0
11
24.700000070035458
21
2.0750000000000002
31
0
0
LINE
5
564
100
AcDbEntity
8
0
100
AcDbLine
10
26
20
1.925
30
0
11
26
21
2
31
0
0
LINE
5
565
100
AcDbEntity
8
0
100
AcDbLine
10
27.54777124726505
20
1.9249995976686485
30
0
11
27.697771247265049
21
1.9249995976686485
31
0
0
LINE
5
566
100
AcDbEntity
8
0
100
AcDbLine
10
26
20
2
30
0
11
26
21
2.0750000000000002
31
0
0
LINE
5
567
100
AcDbEntity
8
0
100
AcDbLine
10
18
20
5.9249999999999998
30
0
11
16.700000248849392
21
5.9249999999999998
31
0
0
CIRCLE
5
568
100
AcDbEntity
8
0
100
AcDbCircle
10
6
20
18
30
0
40
1.25
210
0
220
-0
230
1
0
LINE
5
569
100
AcDbEntity
8
0
100
AcDbLine
10
26.999999932944775
20
2.0749995976686471
30
0
11
27.300000049173832
21
2.0749995976686257
31
0
0
LINE
5
570
100
AcDbEntity
8
0
100
AcDbLine
10
30.999999932944775
20
5.9249995976686485
30
0
11
31.449999922886491
21
5.9249995976686485
31
0
0
LINE
5
571
100
AcDbEntity
8
0
100
AcDbLine
10
14.999999932944775
20
6.0749995976686471
30
0
11
15.300000049173828
21
6.0749995976686479
31
0
0
LINE
5
572
100
AcDbEntity
8
0
100
AcDbLine
10
27.800000056624413
20
2.0749995976686471
30
0
11
27.650000054389238
21
2.0749995976686471
31
0
0
LINE
5
573
100
AcDbEntity
8
0
100
AcDbLine
10
23.800000056624413
20
1.9249995976686485
30
0
11
23.950000056624411
21
1.9249995976686485
31
0
0
LINE
5
574
100
AcDbEntity
8
0
100
AcDbLine
10
24.049999909475446
20
1.9249995976686485
30
0
11
24.200000062584877
21
1.9249995976686485
31
0
0
LINE
5
575
100
AcDbEntity
8
0
100
AcDbLine
10
6
20
18
30
0
11
6
21
18.074999999999999
31
0
0
LINE
5
576
100
AcDbEntity
8
0
100
AcDbLine
10
30.999999932944775
20
1.9999995976686478
30
0
11
30.999999932944775
21
1.9249995976686485
31
0
0
LINE
5
577
100
AcDbEntity
8
0
100
AcDbLine
10
7.5500000528991222
20
14.074999597668647
30
0
11
7.5500000528991222
21
19.5
31
0
0
LINE
5
578
100
AcDbEntity
8
0
100
AcDbLine
10
31.800000056624413
20
6.0749995976686471
30
0
11
31.650000054389238
21
6.0749995976686471
31
0
0
LINE
5
579
100
AcDbEntity
8
0
100
AcDbLine
10
31.54777124726505
20
1.9249995976686485
30
0
11
31.697771247265049
21
1.9249995976686485
31
0
0
LINE
5
580
100
AcDbEntity
8
0
100
AcDbLine
10
6.9999999329447746
20
17.999999597668648
30
0
11
6.9999999329447746
21
18.074999597668647
31
0
0
LINE
5
581
100
AcDbEntity
8
0
100
AcDbLine
10
15.800000056624413
20
2.0749995976686471
30
0
11
15.650000054389238
21
2.0749995976686471
31
0
0
LINE
5
582
100
AcDbEntity
8
0
100
AcDbLine
10
31.449999922886491
20
1.9249995976686485
30
0
11
31.54777124726505
21
1.9249995976686485
31
0
0
LINE
5
583
100
AcDbEntity
8
0
100
AcDbLine
10
30
20
1.925
30
0
11
28.700000070035458
21
1.925
31
0
0
LINE
5
584
100
AcDbEntity
8
0
100
AcDbLine
10
14.999999932944775
20
5.9249995976686485
30
0
11
15.449999922886491
21
5.9249995976686485
31
0
0
LINE
5
585
100
AcDbEntity
8
0
100
AcDbLine
10
31.300000049172965
20
6.0749995976725657
30
0
11
31.550000052899122
21
6.0749995976686471
31
0
0
LINE
5
586
100
AcDbEntity
8
0
100
AcDbLine
10
16.200000062584877
20
1.9249995976686485
30
0
11
16.450000062584877
21
1.9249995976686485
31
0
0
LINE
5
587
100
AcDbEntity
8
0
100
AcDbLine
10
30
20
2
30
0
11
30
21
1.925
31
0
0
LINE
5
588
100
AcDbEntity
8
0
100
AcDbLine
10
14.999999932944775
20
1.9999995976686478
30
0
11
14.999999932944775
21
2.0749995976686471
31
0
0
LINE
5
589
100
AcDbEntity
8
0
100
AcDbLine
10
31.300000049173683
20
2.0749995976705673
30
0
11
31.550000052899122
21
2.0749995976686471
31
0
0
LINE
5
590
100
AcDbEntity
8
0
100
AcDbLine
10
15.300000049173828
20
2.0749995976686475
30
0
11
15.550000052899122
21
2.0749995976686471
31
0
0
LINE
5
591
100
AcDbEntity
8
0
100
AcDbLine
10
31.899999912828207
20
2.0749995976686471
30
0
11
32.050000060349703
21
2.0749995976686471
31
0
0
LINE
5
592
100
AcDbEntity
8
0
100
AcDbLine
10
28.049999909475446
20
1.9249995976686485
30
0
11
28.200000062584877
21
1.9249995976686485
31
0
0
LINE
5
593
100
AcDbEntity
8
0
100
AcDbLine
10
2
20
18.074999999999999
30
0
11
0.40000000596046448
21
18.074999999999999
31
0
0
LINE
5
594
100
AcDbEntity
8
0
100
AcDbLine
10
24.550000365823507
20
2.0750000000000002
30
0
11
24.550000365823507
21
0.5000000074505806
31
0
0
LINE
5
595
100
AcDbEntity
8
0
100
AcDbLine
10
28.700000070035458
20
3.9000000581145287
30
0
11
28.700000070035458
21
2.0750000000000002
31
0
0
LINE
5
596
100
AcDbEntity
8
0
100
AcDbLine
10
4.450000062584877
20
19.700000293552876
30
0
11
0
21
19.700000293552876
31
0
0
LINE
5
597
100
AcDbEntity
8
0
100
AcDbLine
10
2.9999999329447746
20
17.999999597668648
30
0
11
2.9999999329447746
21
17.924999597668648
31
0
0
LINE
5
598
100
AcDbEntity
8
0
100
AcDbLine
10
0.24999999441206455
20
19.149999571964145
30
0
11
0
21
19.149999571964145
31
0
0
LINE
5
599
100
AcDbEntity
8
0
100
AcDbLine
10
2.9999999329447746
20
17.924999597668648
30
0
11
3.4499999228864908
21
17.924999597668648
31
0
0
LINE
5
600
100
AcDbEntity
8
0
100
AcDbLine
10
3.3000000491738319
20
19.500000290572643
30
0
11
0
21
19.500000290572643
31
0
0
LINE
5
601
100
AcDbEntity
8
0
100
AcDbLine
10
30.999999932944775
20
1.9249995976686485
30
0
11
31.449999922886491
21
1.9249995976686485
31
0
0
LINE
5
602
100
AcDbEntity
8
0
100
AcDbLine
10
3.5500000528991222
20
14.074999597668647
30
0
11
3.5500000528991222
21
19.5
31
0
0
LINE
5
603
100
AcDbEntity
8
0
100
AcDbLine
10
31.950000056624411
20
1.9249995976686485
30
0
11
32.049999909475446
21
1.9249995976686485
31
0
0
LINE
5
604
100
AcDbEntity
8
0
100
AcDbLine
10
2
20
14.074999999999999
30
0
11
0.40000000596046448
21
14.074999999999999
31
0
0
LINE
5
605
100
AcDbEntity
8
0
100
AcDbLine
10
32.200000062584877
20
1.9249995976686485
30
0
11
32.450000062584877
21
1.9249995976686485
31
0
0
LINE
5
606
100
AcDbEntity
8
0
100
AcDbLine
10
24.200000062584877
20
1.9249995976686485
30
0
11
24.450000062584877
21
1.9249995976686485
31
0
0
LINE
5
607
100
AcDbEntity
8
0
100
AcDbLine
10
31.800000056624413
20
1.9249995976686485
30
0
11
31.950000056624411
21
1.9249995976686485
31
0
0
LINE
5
608
100
AcDbEntity
8
0
100
AcDbLine
10
28.200000062584877
20
1.9249995976686485
30
0
11
28.450000062584877
21
1.9249995976686485
31
0
0
CIRCLE
5
609
100
AcDbEntity
8
0
100
AcDbCircle
10
2
20
18
30
0
40
1.25
210
0
220
-0
230
1
0
LINE
5
610
100
AcDbEntity
8
0
100
AcDbLine
10
28.700000070035458
20
1.925
30
0
11
28.700000070035458
21
0.5000000074505806
31
0
0
LINE
5
611
100
AcDbEntity
8
0
100
AcDbLine
10
15.449999922886491
20
1.9249995976686485
30
0
11
15.54777124726505
21
1.9249995976686485
31
0
0
LINE
5
612
100
AcDbEntity
8
0
100
AcDbLine
10
28.550000425428152
20
2.0750000000000002
30
0
11
28.550000425428152
21
0.5000000074505806
31
0
0
LINE
5
613
100
AcDbEntity
8
0
100
AcDbLine
10
28.700000070035458
20
2.0750000000000002
30
0
11
30
21
2.0750000000000002
31
0
0
LINE
5
614
100
AcDbEntity
8
0
100
AcDbLine
10
32.049999909475446
20
1.9249995976686485
30
0
11
32.200000062584877
21
1.9249995976686485
31
0
0
LINE
5
615
100
AcDbEntity
8
0
100
AcDbLine
10
3.5500000528991222
20
19.5
30
0
11
3.4499999228864908
21
19.500000290572643
31
0
0
LINE
5
616
100
AcDbEntity
8
0
100
AcDbLine
10
2
20
18
30
0
11
2
21
17.925000000000001
31
0
0
LINE
5
617
100
AcDbEntity
8
0
100
AcDbLine
10
14.999999932944775
20
1.9999995976686478
30
0
11
14.999999932944775
21
1.9249995976686485
31
0
0
LINE
5
618
100
AcDbEntity
8
0
100
AcDbLine
10
31.697771247265049
20
1.9249995976686485
30
0
11
31.800000056624413
21
1.9249995976686485
31
0
0
LINE
5
619
100
AcDbEntity
8
0
100
AcDbLine
10
0.40000000596046448
20
19.300000287592411
30
0
11
0
21
19.300000287592411
31
0
0
LINE
5
620
100
AcDbEntity
8
0
100
AcDbLine
10
2.9999999329447746
20
14.074999597668647
30
0
11
3.3000000491738311
21
14.074999597668647
31
0
0
LINE
5
621
100
AcDbEntity
8
0
100
AcDbLine
10
31.800000056624413
20
2.0749995976686471
30
0
11
31.899999912828207
21
2.0749995976686471
31
0
0
LINE
5
622
100
AcDbEntity
8
0
100
AcDbLine
10
4.450000062584877
20
19.500000290572643
30
0
11
4.450000062584877
21
19.700000293552876
31
0
0
LINE
5
623
100
AcDbEntity
8
0
100
AcDbLine
10
28.050000060349703
20
2.0749995976686471
30
0
11
28.300000060349703
21
2.0749995976686471
31
0
0
LINE
5
624
100
AcDbEntity
8
0
100
AcDbLine
10
2.9999999329447746
20
18.074999597668647
30
0
11
3.3000000491738319
21
18.074999597668647
31
0
0
LINE
5
625
100
AcDbEntity
8
0
100
AcDbLine
10
32.050000060349703
20
2.0749995976686471
30
0
11
32.300000060349703
21
2.0749995976686471
31
0
0
LINE
5
626
100
AcDbEntity
8
0
100
AcDbLine
10
3.3000000491738319
20
18.074999597668647
30
0
11
3.3000000491738319
21
19.500000290572643
31
0
0
LINE
5
627
100
AcDbEntity
8
0
100
AcDbLine
10
4.3000000640749931
20
19.500000290572643
30
0
11
4.2000000603497032
21
19.5
31
0
0
LINE
5
628
100
AcDbEntity
8
0
100
AcDbLine
10
2.9999999329447746
20
17.999999597668648
30
0
11
2.9999999329447746
21
18.074999597668647
31
0
0
LINE
5
629
100
AcDbEntity
8
0
100
AcDbLine
10
2
20
18
30
0
11
2
21
18.074999999999999
31
0
0
LINE
5
630
100
AcDbEntity
8
0
100
AcDbLine
10
30
20
2
30
0
11
30
21
2.0750000000000002
31
0
0
LINE
5
631
100
AcDbEntity
8
0
100
AcDbLine
10
3.8000000566244125
20
19.5
30
0
11
3.6977712472650492
21
19.5
31
0
0
LINE
5
632
100
AcDbEntity
8
0
100
AcDbLine
10
0.40000000596046448
20
18.074999999999999
30
0
11
0.40000000596046448
21
19.300000287592411
31
0
0
LINE
5
633
100
AcDbEntity
8
0
100
AcDbLine
10
2
20
17.925000000000001
30
0
11
0.40000000596046448
21
17.925000000000001
31
0
0
LINE
5
634
100
AcDbEntity
8
0
100
AcDbLine
10
4.0500000603497028
20
19.5
30
0
11
3.9500000566244124
21
19.500000290572643
31
0
0
LINE
5
635
100
AcDbEntity
8
0
100
AcDbLine
10
0.40000000596046448
20
14.074999999999999
30
0
11
0.40000000596046448
21
17.925000000000001
31
0
0
LINE
5
636
100
AcDbEntity
8
0
100
AcDbLine
10
4.695644392492718
20
17.924641546945367
30
0
11
4.6967024200338097
21
14.074641837704419
31
0
0
LINE
5
637
100
AcDbEntity
8
0
100
AcDbLine
10
27.697771247265049
20
9.9249995976686485
30
0
11
27.800000056624413
21
9.9249995976686485
31
0
0
LINE
5
638
100
AcDbEntity
8
0
100
AcDbLine
10
27.800000056624413
20
10.100000150501728
30
0
11
27.800000056624413
21
10.074999597668647
31
0
0
LINE
5
639
100
AcDbEntity
8
0
100
AcDbLine
10
27.300000049173828
20
10.074999597668649
30
0
11
27.550000052899122
21
10.074999597668647
31
0
0
LINE
5
640
100
AcDbEntity
8
0
100
AcDbLine
10
27.800000056624413
20
10.074999597668647
30
0
11
27.650000054389238
21
10.074999597668647
31
0
0
LINE
5
641
100
AcDbEntity
8
0
100
AcDbLine
10
27.54777124726505
20
9.9249995976686485
30
0
11
27.697771247265049
21
9.9249995976686485
31
0
0
LINE
5
642
100
AcDbEntity
8
0
100
AcDbLine
10
27.449999922886491
20
9.9249995976686485
30
0
11
27.54777124726505
21
9.9249995976686485
31
0
0
LINE
5
643
100
AcDbEntity
8
0
100
AcDbLine
10
27.550000052899122
20
10.074999597668647
30
0
11
27.650000054389238
21
10.074999597668647
31
0
0
LINE
5
644
100
AcDbEntity
8
0
100
AcDbLine
10
27.800000056624413
20
9.9249995976686485
30
0
11
27.950000056624411
21
9.9249995976686485
31
0
0
LINE
5
645
100
AcDbEntity
8
0
100
AcDbLine
10
26.999999932944775
20
9.9999995976686478
30
0
11
26.999999932944775
21
9.9249995976686485
31
0
0
LINE
5
646
100
AcDbEntity
8
0
100
AcDbLine
10
26
20
10
30
0
11
26
21
10.074999999999999
31
0
0
LINE
5
647
100
AcDbEntity
8
0
100
AcDbLine
10
26
20
10
30
0
11
26
21
9.9250000000000007
31
0
0
LINE
5
648
100
AcDbEntity
8
0
100
AcDbLine
10
26.999999932944775
20
9.9999995976686478
30
0
11
26.999999932944775
21
10.074999597668647
31
0
0
LINE
5
649
100
AcDbEntity
8
0
100
AcDbLine
10
26.999999932944775
20
10.074999597668647
30
0
11
27.300000049173828
21
10.074999597668649
31
0
0
LINE
5
650
100
AcDbEntity
8
0
100
AcDbLine
10
18.999999932944775
20
9.9999995976686478
30
0
11
18.999999932944775
21
9.9249995976686485
31
0
0
LINE
5
651
100
AcDbEntity
8
0
100
AcDbLine
10
18.999999932944775
20
9.9999995976686478
30
0
11
18.999999932944775
21
10.074999597668647
31
0
0
LINE
5
652
100
AcDbEntity
8
0
100
AcDbLine
10
18.999999932944775
20
9.9249995976686485
30
0
11
19.449999922886491
21
9.9249995976686485
31
0
0
LINE
5
653
100
AcDbEntity
8
0
100
AcDbLine
10
19.800000056624413
20
10.074999597668647
30
0
11
19.650000054389238
21
10.074999597668647
31
0
0
LINE
5
654
100
AcDbEntity
8
0
100
AcDbLine
10
19.300000049173828
20
10.074999597668649
30
0
11
19.550000052899122
21
10.074999597668647
31
0
0
LINE
5
655
100
AcDbEntity
8
0
100
AcDbLine
10
19.449999922886491
20
9.9249995976686485
30
0
11
19.54777124726505
21
9.9249995976686485
31
0
0
LINE
5
656
100
AcDbEntity
8
0
100
AcDbLine
10
19.550000052899122
20
10.074999597668647
30
0
11
19.650000054389238
21
10.074999597668647
31
0
0
LINE
5
657
100
AcDbEntity
8
0
100
AcDbLine
10
19.800000056624413
20
9.9249995976686485
30
0
11
19.950000056624411
21
9.9249995976686485
31
0
0
LINE
5
658
100
AcDbEntity
8
0
100
AcDbLine
10
19.800000056624413
20
10.100000150501728
30
0
11
19.800000056624413
21
10.074999597668647
31
0
0
LINE
5
659
100
AcDbEntity
8
0
100
AcDbLine
10
19.697771247265049
20
9.9249995976686485
30
0
11
19.800000056624413
21
9.9249995976686485
31
0
0
LINE
5
660
100
AcDbEntity
8
0
100
AcDbLine
10
18.999999932944775
20
10.074999597668647
30
0
11
19.300000049173828
21
10.074999597668649
31
0
0
LINE
5
661
100
AcDbEntity
8
0
100
AcDbLine
10
30.999999932944775
20
13.999999597668648
30
0
11
30.999999932944775
21
13.924999597668648
31
0
0
LINE
5
662
100
AcDbEntity
8
0
100
AcDbLine
10
31.54777124726505
20
13.924999597668648
30
0
11
31.697771247265049
21
13.924999597668648
31
0
0
LINE
5
663
100
AcDbEntity
8
0
100
AcDbLine
10
31.800000056624413
20
13.924999597668648
30
0
11
31.800000056624413
21
10.100000150501728
31
0
0
LINE
5
664
100
AcDbEntity
8
0
100
AcDbLine
10
30.999999932944775
20
13.924999597668648
30
0
11
31.449999922886491
21
13.924999597668648
31
0
0
LINE
5
665
100
AcDbEntity
8
0
100
AcDbLine
10
30.999999932944775
20
14.074999597668647
30
0
11
31.30000004917391
21
14.074999597668489
31
0
0
LINE
5
666
100
AcDbEntity
8
0
100
AcDbLine
10
30
20
10
30
0
11
30
21
9.9250000000000007
31
0
0
LINE
5
667
100
AcDbEntity
8
0
100
AcDbLine
10
31.449999922886491
20
13.924999597668648
30
0
11
31.54777124726505
21
13.924999597668648
31
0
0
LINE
5
668
100
AcDbEntity
8
0
100
AcDbLine
10
30
20
10
30
0
11
30
21
10.074999999999999
31
0
0
LINE
5
669
100
AcDbEntity
8
0
100
AcDbLine
10
30.999999932944775
20
9.9999995976686478
30
0
11
30.999999932944775
21
10.074999597668647
31
0
0
LINE
5
670
100
AcDbEntity
8
0
100
AcDbLine
10
31.550000052899122
20
10.074999597668647
30
0
11
31.650000054389238
21
10.074999597668647
31
0
0
LINE
5
671
100
AcDbEntity
8
0
100
AcDbLine
10
30.999999932944775
20
9.9999995976686478
30
0
11
30.999999932944775
21
9.9249995976686485
31
0
0
LINE
5
672
100
AcDbEntity
8
0
100
AcDbLine
10
30.999999932944775
20
10.074999597668647
30
0
11
31.300000049173889
21
10.074999597668489
31
0
0
LINE
5
673
100
AcDbEntity
8
0
100
AcDbLine
10
11.449999922886491
20
1.9249995976686485
30
0
11
11.54777124726505
21
1.9249995976686485
31
0
0
LINE
5
674
100
AcDbEntity
8
0
100
AcDbLine
10
11.800000056624413
20
2.0749995976686471
30
0
11
11.899999912828207
21
2.0749995976686471
31
0
0
LINE
5
675
100
AcDbEntity
8
0
100
AcDbLine
10
10.999999932944775
20
1.9999995976686478
30
0
11
10.999999932944775
21
2.0749995976686471
31
0
0
LINE
5
676
100
AcDbEntity
8
0
100
AcDbLine
10
11.54777124726505
20
5.9249995976686485
30
0
11
11.697771247265049
21
5.9249995976686485
31
0
0
LINE
5
677
100
AcDbEntity
8
0
100
AcDbLine
10
27.800000056624413
20
5.9249995976686485
30
0
11
27.950000056624411
21
5.9249995976686485
31
0
0
LINE
5
678
100
AcDbEntity
8
0
100
AcDbLine
10
19.697771247265049
20
1.9249995976686485
30
0
11
19.800000056624413
21
1.9249995976686485
31
0
0
LINE
5
679
100
AcDbEntity
8
0
100
AcDbLine
10
0.40000000596046448
20
0.5000000074505806
30
0
11
0.5000000074505806
21
0.5000000074505806
31
0
0
LINE
5
680
100
AcDbEntity
8
0
100
AcDbLine
10
3.8000000566244125
20
2.0749995976686471
30
0
11
3.6500000543892384
21
2.0749995976686471
31
0
0
LINE
5
681
100
AcDbEntity
8
0
100
AcDbLine
10
2
20
2.0750000000000002
30
0
11
0.40000000596046448
21
2.0750000000000002
31
0
0
LINE
5
682
100
AcDbEntity
8
0
100
AcDbLine
10
4.0499999094754457
20
1.9249995976686485
30
0
11
4.200000062584877
21
1.9249995976686485
31
0
0
LINE
5
683
100
AcDbEntity
8
0
100
AcDbLine
10
4.7000000700354576
20
0.5000000074505806
30
0
11
4.7000000700354576
21
1.925
31
0
0
LINE
5
684
100
AcDbEntity
8
0
100
AcDbLine
10
4.5498830997007227
20
1.925
30
0
11
4.5498830997007227
21
0.5000000074505806
31
0
0
LINE
5
685
100
AcDbEntity
8
0
100
AcDbLine
10
19.800000056624413
20
2.0749995976686471
30
0
11
19.650000054389238
21
2.0749995976686471
31
0
0
LINE
5
686
100
AcDbEntity
8
0
100
AcDbLine
10
19.697771247265049
20
5.9249995976686485
30
0
11
19.800000056624413
21
5.9249995976686485
31
0
0
LINE
5
687
100
AcDbEntity
8
0
100
AcDbLine
10
28.700000070035458
20
17.92074089453801
30
0
11
28.700000070035458
21
14.074999999999999
31
0
0
LINE
5
688
100
AcDbEntity
8
0
100
AcDbLine
10
2
20
13.925000000000001
30
0
11
0.40000000596046448
21
13.925000000000001
31
0
0
LINE
5
689
100
AcDbEntity
8
0
100
AcDbLine
10
11.800000056624413
20
1.9249995976686485
30
0
11
11.950000056624413
21
1.9249995976686485
31
0
0
LINE
5
690
100
AcDbEntity
8
0
100
AcDbLine
10
10.999999932944775
20
1.9999995976686478
30
0
11
10.999999932944775
21
1.9249995976686485
31
0
0
LINE
5
691
100
AcDbEntity
8
0
100
AcDbLine
10
12.549883099700722
20
1.925
30
0
11
12.549883099700722
21
0.5000000074505806
31
0
0
LINE
5
692
100
AcDbEntity
8
0
100
AcDbLine
10
27.800000056624413
20
6.0749995976686471
30
0
11
27.650000054389238
21
6.0749995976686471
31
0
0
LINE
5
693
100
AcDbEntity
8
0
100
AcDbLine
10
23.800000056624413
20
13.924999597668648
30
0
11
23.800000056624413
21
19.5
31
0
0
LINE
5
694
100
AcDbEntity
8
0
100
AcDbLine
10
19.449999922886491
20
1.9249995976686485
30
0
11
19.54777124726505
21
1.9249995976686485
31
0
0
LINE
5
695
100
AcDbEntity
8
0
100
AcDbLine
10
12.700000070035458
20
0.5000000074505806
30
0
11
12.700000070035458
21
1.925
31
0
0
LINE
5
696
100
AcDbEntity
8
0
100
AcDbLine
10
27.950000056624411
20
5.9249995976686485
30
0
11
28.049999909475446
21
5.9249995976686485
31
0
0
LINE
5
697
100
AcDbEntity
8
0
100
AcDbLine
10
3.899999912828207
20
2.0749995976686471
30
0
11
4.0500000603497028
21
2.0749995976686471
31
0
0
LINE
5
698
100
AcDbEntity
8
0
100
AcDbLine
10
18.999999932944775
20
1.9999995976686478
30
0
11
18.999999932944775
21
1.9249995976686485
31
0
0
LINE
5
699
100
AcDbEntity
8
0
100
AcDbLine
10
11.550000052899122
20
2.0749995976686471
30
0
11
11.650000054389238
21
2.0749995976686471
31
0
0
LINE
5
700
100
AcDbEntity
8
0
100
AcDbLine
10
11.54777124726505
20
1.9249995976686485
30
0
11
11.697771247265049
21
1.9249995976686485
31
0
0
LINE
5
701
100
AcDbEntity
8
0
100
AcDbLine
10
20.700000070035458
20
17.92194737615846
30
0
11
20.700000070035458
21
14.074999999999999
31
0
0
LINE
5
702
100
AcDbEntity
8
0
100
AcDbLine
10
3.5477712472650493
20
13.924999597668648
30
0
11
3.6977712472650492
21
13.924999597668648
31
0
0
LINE
5
703
100
AcDbEntity
8
0
100
AcDbLine
10
2.9999999329447746
20
13.924999597668648
30
0
11
3.4499999228864908
21
13.924999597668648
31
0
0
LINE
5
704
100
AcDbEntity
8
0
100
AcDbLine
10
10.999999932944775
20
2.0749995976686471
30
0
11
11.300000049173828
21
2.0749995976686475
31
0
0
LINE
5
705
100
AcDbEntity
8
0
100
AcDbLine
10
18.999999932944775
20
5.9999995976686478
30
0
11
18.999999932944775
21
6.0749995976686471
31
0
0
LINE
5
706
100
AcDbEntity
8
0
100
AcDbLine
10
19.800000056624413
20
6.0749995976686471
30
0
11
19.899999912828207
21
6.0749995976686471
31
0
0
LINE
5
707
100
AcDbEntity
8
0
100
AcDbLine
10
19.800000056624413
20
2.0749995976686471
30
0
11
19.899999912828207
21
2.0749995976686471
31
0
0
LINE
5
708
100
AcDbEntity
8
0
100
AcDbLine
10
31.800000056624413
20
13.924999597668648
30
0
11
31.800000056624413
21
19.5
31
0
0
LINE
5
709
100
AcDbEntity
8
0
100
AcDbLine
10
31.697771247265049
20
13.924999597668648
30
0
11
31.697771247265049
21
19.5
31
0
0
LINE
5
710
100
AcDbEntity
8
0
100
AcDbLine
10
18.999999932944775
20
5.9999995976686478
30
0
11
18.999999932944775
21
5.9249995976686485
31
0
0
LINE
5
711
100
AcDbEntity
8
0
100
AcDbLine
10
11.697771247265049
20
13.924999597668648
30
0
11
11.697771247265049
21
19.5
31
0
0
LINE
5
712
100
AcDbEntity
8
0
100
AcDbLine
10
24.700000070035458
20
14.074999078620428
30
0
11
24.700000070035458
21
17.934113068821894
31
0
0
LINE
5
713
100
AcDbEntity
8
0
100
AcDbLine
10
23.550000052899122
20
14.074999597668647
30
0
11
23.550000052899122
21
19.5
31
0
0
LINE
5
714
100
AcDbEntity
8
0
100
AcDbLine
10
27.899999912828207
20
6.0749995976686471
30
0
11
28.050000060349703
21
6.0749995976686471
31
0
0
LINE
5
715
100
AcDbEntity
8
0
100
AcDbLine
10
27.800000056624413
20
6.0749995976686471
30
0
11
27.899999912828207
21
6.0749995976686471
31
0
0
LINE
5
716
100
AcDbEntity
8
0
100
AcDbLine
10
10
20
2
30
0
11
10
21
2.0750000000000002
31
0
0
LINE
5
717
100
AcDbEntity
8
0
100
AcDbLine
10
27.550000052899122
20
6.0749995976686471
30
0
11
27.650000054389238
21
6.0749995976686471
31
0
0
LINE
5
718
100
AcDbEntity
8
0
100
AcDbLine
10
3.8000000566244125
20
13.924999597668648
30
0
11
3.8000000566244125
21
10.100000150501728
31
0
0
LINE
5
719
100
AcDbEntity
8
0
100
AcDbLine
10
2
20
14
30
0
11
2
21
13.925000000000001
31
0
0
LINE
5
720
100
AcDbEntity
8
0
100
AcDbLine
10
27.697771247265049
20
5.9249995976686485
30
0
11
27.800000056624413
21
5.9249995976686485
31
0
0
LINE
5
721
100
AcDbEntity
8
0
100
AcDbLine
10
2.9999999329447746
20
13.999999597668648
30
0
11
2.9999999329447746
21
13.924999597668648
31
0
0
LINE
5
722
100
AcDbEntity
8
0
100
AcDbLine
10
3.8000000566244125
20
2.0749995976686471
30
0
11
3.899999912828207
21
2.0749995976686471
31
0
0
LINE
5
723
100
AcDbEntity
8
0
100
AcDbLine
10
3.4499999228864908
20
13.924999597668648
30
0
11
3.5477712472650493
21
13.924999597668648
31
0
0
LINE
5
724
100
AcDbEntity
8
0
100
AcDbLine
10
20.700000070035458
20
17.92194737615846
30
0
11
22
21
17.925000000000001
31
0
0
LINE
5
725
100
AcDbEntity
8
0
100
AcDbLine
10
19.800000056624413
20
13.924999597668648
30
0
11
19.800000056624413
21
19.5
31
0
0
LINE
5
726
100
AcDbEntity
8
0
100
AcDbLine
10
28.049999909475446
20
5.9249995976686485
30
0
11
28.200000062584877
21
5.9249995976686485
31
0
0
LINE
5
727
100
AcDbEntity
8
0
100
AcDbLine
10
2.9999999329447746
20
1.9999995976686478
30
0
11
2.9999999329447746
21
1.9249995976686485
31
0
0
LINE
5
728
100
AcDbEntity
8
0
100
AcDbLine
10
19.800000056624413
20
5.9249995976686485
30
0
11
19.950000056624411
21
5.9249995976686485
31
0
0
CIRCLE
5
729
100
AcDbEntity
8
0
100
AcDbCircle
10
22
20
2
30
0
40
1.25
210
0
220
-0
230
1
0
LINE
5
730
100
AcDbEntity
8
0
100
AcDbLine
10
19.449999922886491
20
5.9249995976686485
30
0
11
19.54777124726505
21
5.9249995976686485
31
0
0
LINE
5
731
100
AcDbEntity
8
0
100
AcDbLine
10
10
20
2
30
0
11
10
21
1.925
31
0
0
LINE
5
732
100
AcDbEntity
8
0
100
AcDbLine
10
3.5500000528991222
20
2.0749995976686471
30
0
11
3.6500000543892384
21
2.0749995976686471
31
0
0
LINE
5
733
100
AcDbEntity
8
0
100
AcDbLine
10
18.999999932944775
20
1.9999995976686478
30
0
11
18.999999932944775
21
2.0749995976686471
31
0
0
LINE
5
734
100
AcDbEntity
8
0
100
AcDbLine
10
18.999999932944775
20
2.0749995976686471
30
0
11
19.300000049173832
21
2.0749995976686257
31
0
0
LINE
5
735
100
AcDbEntity
8
0
100
AcDbLine
10
0.5000000074505806
20
0.5000000074505806
30
0
11
4.5498830997007227
21
0.5000000074505806
31
0
0
LINE
5
736
100
AcDbEntity
8
0
100
AcDbLine
10
18.999999932944775
20
5.9249995976686485
30
0
11
19.449999922886491
21
5.9249995976686485
31
0
0
LINE
5
737
100
AcDbEntity
8
0
100
AcDbLine
10
6
20
10
30
0
11
6
21
9.9250000000000007
31
0
0
LINE
5
738
100
AcDbEntity
8
0
100
AcDbLine
10
28.700000070035458
20
0.35000000521540642
30
0
11
16
21
0.35000000521540642
31
0
0
CIRCLE
5
739
100
AcDbEntity
8
0
100
AcDbCircle
10
2
20
2
30
0
40
1.25
210
0
220
-0
230
1
0
LINE
5
740
100
AcDbEntity
8
0
100
AcDbLine
10
12.050000060349703
20
2.0749995976686471
30
0
11
12.300000060349703
21
2.0749995976686471
31
0
0
LINE
5
741
100
AcDbEntity
8
0
100
AcDbLine
10
3.5477712472650493
20
1.9249995976686485
30
0
11
3.6977712472650492
21
1.9249995976686485
31
0
0
LINE
5
742
100
AcDbEntity
8
0
100
AcDbLine
10
26.999999932944775
20
5.9249995976686485
30
0
11
27.449999922886491
21
5.9249995976686485
31
0
0
LINE
5
743
100
AcDbEntity
8
0
100
AcDbLine
10
30
20
5.9249999999999998
30
0
11
28.700000070035458
21
5.9249999999999998
31
0
0
LINE
5
744
100
AcDbEntity
8
0
100
AcDbLine
10
20.550000306218863
20
18.079746447617858
30
0
11
22
21
18.074999999999999
31
0
0
LINE
5
745
100
AcDbEntity
8
0
100
AcDbLine
10
3.9500000566244124
20
1.9249995976686485
30
0
11
4.0499999094754457
21
1.9249995976686485
31
0
0
LINE
5
746
100
AcDbEntity
8
0
100
AcDbLine
10
4.200000062584877
20
1.9249995976686485
30
0
11
4.450000062584877
21
1.9249995976686485
31
0
0
LINE
5
747
100
AcDbEntity
8
0
100
AcDbLine
10
6
20
10.074999999999999
30
0
11
4.6978016694271512
21
10.07464213979175
31
0
0
LINE
5
748
100
AcDbEntity
8
0
100
AcDbLine
10
19.800000056624413
20
6.0749995976686471
30
0
11
19.650000054389238
21
6.0749995976686471
31
0
0
LINE
5
749
100
AcDbEntity
8
0
100
AcDbLine
10
19.550000052899122
20
2.0749995976686471
30
0
11
19.650000054389238
21
2.0749995976686471
31
0
0
LINE
5
750
100
AcDbEntity
8
0
100
AcDbLine
10
10.999999932944775
20
18.074999597668647
30
0
11
11.30000004917383
21
18.074999597668647
31
0
0
LINE
5
751
100
AcDbEntity
8
0
100
AcDbLine
10
26.999999932944775
20
5.9999995976686478
30
0
11
26.999999932944775
21
6.0749995976686471
31
0
0
LINE
5
752
100
AcDbEntity
8
0
100
AcDbLine
10
8.7000000700354576
20
13.925000000000001
30
0
11
8.7000000700354576
21
10.074999999999999
31
0
0
LINE
5
753
100
AcDbEntity
8
0
100
AcDbLine
10
11.697771247265049
20
1.9249995976686485
30
0
11
11.800000056624413
21
1.9249995976686485
31
0
0
LINE
5
754
100
AcDbEntity
8
0
100
AcDbLine
10
20.700000070035458
20
0.5000000074505806
30
0
11
24.550000365823507
21
0.5000000074505806
31
0
0
LINE
5
755
100
AcDbEntity
8
0
100
AcDbLine
10
27.800000056624413
20
13.924999597668648
30
0
11
27.800000056624413
21
19.5
31
0
0
LINE
5
756
100
AcDbEntity
8
0
100
AcDbLine
10
3.6977712472650492
20
1.9249995976686485
30
0
11
3.8000000566244125
21
1.9249995976686485
31
0
0
CIRCLE
5
757
100
AcDbEntity
8
0
100
AcDbCircle
10
22
20
18
30
0
40
1.25
210
0
220
-0
230
1
0
LINE
5
758
100
AcDbEntity
8
0
100
AcDbLine
10
19.800000056624413
20
1.9249995976686485
30
0
11
19.950000056624411
21
1.9249995976686485
31
0
0
LINE
5
759
100
AcDbEntity
8
0
100
AcDbLine
10
19.550000052899122
20
6.0749995976686471
30
0
11
19.650000054389238
21
6.0749995976686471
31
0
0
CIRCLE
5
760
100
AcDbEntity
8
0
100
AcDbCircle
10
2
20
14
30
0
40
1.25
210
0
220
-0
230
1
0
LINE
5
761
100
AcDbEntity
8
0
100
AcDbLine
10
22
20
2
30
0
11
22
21
2.0750000000000002
31
0
0
LINE
5
762
100
AcDbEntity
8
0
100
AcDbLine
10
20.200000062584877
20
1.9249995976686485
30
0
11
20.450000062584877
21
1.9249995976686485
31
0
0
LINE
5
763
100
AcDbEntity
8
0
100
AcDbLine
10
11.449999922886491
20
17.924999597668648
30
0
11
11.449999922886491
21
19.500000290572643
31
0
0
LINE
5
764
100
AcDbEntity
8
0
100
AcDbLine
10
20.049999909475446
20
5.9249995976686485
30
0
11
20.200000062584877
21
5.9249995976686485
31
0
0
LINE
5
765
100
AcDbEntity
8
0
100
AcDbLine
10
6
20
10
30
0
11
6
21
10.074999999999999
31
0
0
LINE
5
766
100
AcDbEntity
8
0
100
AcDbLine
10
27.449999922886491
20
5.9249995976686485
30
0
11
27.54777124726505
21
5.9249995976686485
31
0
0
LINE
5
767
100
AcDbEntity
8
0
100
AcDbLine
10
30
20
6.0750000000000002
30
0
11
28.700000070035458
21
6.0750000000000002
31
0
0
LINE
5
768
100
AcDbEntity
8
0
100
AcDbLine
10
26.999999932944775
20
5.9999995976686478
30
0
11
26.999999932944775
21
5.9249995976686485
31
0
0
LINE
5
769
100
AcDbEntity
8
0
100
AcDbLine
10
11.300000049173828
20
2.0749995976686475
30
0
11
11.550000052899122
21
2.0749995976686471
31
0
0
LINE
5
770
100
AcDbEntity
8
0
100
AcDbLine
10
6.9999999329447746
20
13.999999597668648
30
0
11
6.9999999329447746
21
14.074999597668647
31
0
0
LINE
5
771
100
AcDbEntity
8
0
100
AcDbLine
10
10
20
18
30
0
11
10
21
18.074999999999999
31
0
0
LINE
5
772
100
AcDbEntity
8
0
100
AcDbLine
10
19.899999912828207
20
2.0749995976686471
30
0
11
20.050000060349703
21
2.0749995976686471
31
0
0
LINE
5
773
100
AcDbEntity
8
0
100
AcDbLine
10
11.300000049173832
20
19.500000290572643
30
0
11
11.300000049173832
21
20.150000290572642
31
0
0
LINE
5
774
100
AcDbEntity
8
0
100
AcDbLine
10
11.30000004917383
20
18.074999597668647
30
0
11
11.300000049173832
21
19.500000290572643
31
0
0
LINE
5
775
100
AcDbEntity
8
0
100
AcDbLine
10
19.899999912828207
20
6.0749995976686471
30
0
11
20.050000060349703
21
6.0749995976686471
31
0
0
LINE
5
776
100
AcDbEntity
8
0
100
AcDbLine
10
19.950000056624411
20
5.9249995976686485
30
0
11
20.049999909475446
21
5.9249995976686485
31
0
0
LINE
5
777
100
AcDbEntity
8
0
100
AcDbLine
10
4.5500000678002834
20
2.0750000000000002
30
0
11
4.5498830997007227
21
1.925
31
0
0
LINE
5
778
100
AcDbEntity
8
0
100
AcDbLine
10
11.950000056624413
20
1.9249995976686485
30
0
11
12.049999909475446
21
1.9249995976686485
31
0
0
LINE
5
779
100
AcDbEntity
8
0
100
AcDbLine
10
12.049999909475446
20
1.9249995976686485
30
0
11
12.200000062584877
21
1.9249995976686485
31
0
0
LINE
5
780
100
AcDbEntity
8
0
100
AcDbLine
10
26.999999932944775
20
6.0749995976686471
30
0
11
27.300000049173846
21
6.0749995976686035
31
0
0
LINE
5
781
100
AcDbEntity
8
0
100
AcDbLine
10
19.950000056624411
20
1.9249995976686485
30
0
11
20.049999909475446
21
1.9249995976686485
31
0
0
LINE
5
782
100
AcDbEntity
8
0
100
AcDbLine
10
4.6967436418860595
20
13.924641849032696
30
0
11
4.6978016694271512
21
10.07464213979175
31
0
0
LINE
5
783
100
AcDbEntity
8
0
100
AcDbLine
10
6
20
9.9250000000000007
30
0
11
4.6978428912794019
21
9.9246421511200271
31
0
0
LINE
5
784
100
AcDbEntity
8
0
100
AcDbLine
10
11.899999912828207
20
2.0749995976686471
30
0
11
12.050000060349703
21
2.0749995976686471
31
0
0
LINE
5
785
100
AcDbEntity
8
0
100
AcDbLine
10
12.550000067800283
20
2.0750000000000002
30
0
11
12.549883099700722
21
1.925
31
0
0
LINE
5
786
100
AcDbEntity
8
0
100
AcDbLine
10
11.800000056624413
20
2.0749995976686471
30
0
11
11.650000054389238
21
2.0749995976686471
31
0
0
LINE
5
787
100
AcDbEntity
8
0
100
AcDbLine
10
0.20000000298023224
20
0.5000000074505806
30
0
11
0.24999999441206455
21
1.925
31
0
0
LINE
5
788
100
AcDbEntity
8
0
100
AcDbLine
10
2
20
1.925
30
0
11
0.40000000596046448
21
1.925
31
0
0
LINE
5
789
100
AcDbEntity
8
0
100
AcDbLine
10
31.950000056624411
20
9.9249995976686485
30
0
11
31.950000056624411
21
19.500000290572643
31
0
0
CIRCLE
5
790
100
AcDbEntity
8
0
100
AcDbCircle
10
14
20
18
30
0
40
1.25
210
0
220
-0
230
1
0
LINE
5
791
100
AcDbEntity
8
0
100
AcDbLine
10
10.999999932944775
20
17.999999597668648
30
0
11
10.999999932944775
21
18.074999597668647
31
0
0
LINE
5
792
100
AcDbEntity
8
0
100
AcDbLine
10
2.9999999329447746
20
1.9249995976686485
30
0
11
3.4499999228864908
21
1.9249995976686485
31
0
0
LINE
5
793
100
AcDbEntity
8
0
100
AcDbLine
10
15.697771247265049
20
9.9249995976686485
30
0
11
15.800000056624413
21
9.9249995976686485
31
0
0
LINE
5
794
100
AcDbEntity
8
0
100
AcDbLine
10
18
20
9.9250000000000007
30
0
11
16.700000070035458
21
9.9229203373577981
31
0
0
LINE
5
795
100
AcDbEntity
8
0
100
AcDbLine
10
20.700000070035458
20
14.074999999999999
30
0
11
20.700000070035458
21
10.074999999999999
31
0
0
LINE
5
796
100
AcDbEntity
8
0
100
AcDbLine
10
18
20
10.074999999999999
30
0
11
16.700000070035458
21
10.074999999999999
31
0
0
LINE
5
797
100
AcDbEntity
8
0
100
AcDbLine
10
15.800000056624413
20
9.9249995976686485
30
0
11
15.950000056624413
21
9.9249995976686485
31
0
0
LINE
5
798
100
AcDbEntity
8
0
100
AcDbLine
10
19.54777124726505
20
9.9249995976686485
30
0
11
19.697771247265049
21
9.9249995976686485
31
0
0
LINE
5
799
100
AcDbEntity
8
0
100
AcDbLine
10
15.800000056624413
20
10.100000150501728
30
0
11
15.800000056624413
21
10.074999597668647
31
0
0
LINE
5
800
100
AcDbEntity
8
0
100
AcDbLine
10
26
20
9.9250000000000007
30
0
11
24.700000070035458
21
9.9295565344109473
31
0
0
LINE
5
801
100
AcDbEntity
8
0
100
AcDbLine
10
19.800000056624413
20
13.924999597668648
30
0
11
19.800000056624413
21
10.100000150501728
31
0
0
LINE
5
802
100
AcDbEntity
8
0
100
AcDbLine
10
6.9999999329447746
20
9.9999995976686478
30
0
11
6.9999999329447746
21
10.074999597668647
31
0
0
LINE
5
803
100
AcDbEntity
8
0
100
AcDbLine
10
10.999999932944775
20
17.999999597668648
30
0
11
10.999999932944775
21
17.924999597668648
31
0
0
LINE
5
804
100
AcDbEntity
8
0
100
AcDbLine
10
7.5477712472650493
20
9.9249995976686485
30
0
11
7.6977712472650488
21
9.9249995976686485
31
0
0
LINE
5
805
100
AcDbEntity
8
0
100
AcDbLine
10
7.4499999228864908
20
1.9249995976686485
30
0
11
7.5477712472650493
21
1.9249995976686485
31
0
0
LINE
5
806
100
AcDbEntity
8
0
100
AcDbLine
10
20.700000070035458
20
2.0750000000000002
30
0
11
22
21
2.0750000000000002
31
0
0
LINE
5
807
100
AcDbEntity
8
0
100
AcDbLine
10
0.40000000596046448
20
1.925
30
0
11
0.40000000596046448
21
0.5000000074505806
31
0
0
LINE
5
808
100
AcDbEntity
8
0
100
AcDbLine
10
7.5477712472650493
20
1.9249995976686485
30
0
11
7.6977712472650488
21
1.9249995976686485
31
0
0
LINE
5
809
100
AcDbEntity
8
0
100
AcDbLine
10
6.9999999329447746
20
1.9999995976686478
30
0
11
6.9999999329447746
21
2.0749995976686471
31
0
0
LINE
5
810
100
AcDbEntity
8
0
100
AcDbLine
10
23.800000056624413
20
5.9249995976686485
30
0
11
23.950000056624411
21
5.9249995976686485
31
0
0
LINE
5
811
100
AcDbEntity
8
0
100
AcDbLine
10
12.700000070035458
20
0.5000000074505806
30
0
11
16.550000246614218
21
0.5000000074505806
31
0
0
LINE
5
812
100
AcDbEntity
8
0
100
AcDbLine
10
23.800000056624413
20
6.0749995976686471
30
0
11
23.650000054389238
21
6.0749995976686471
31
0
0
LINE
5
813
100
AcDbEntity
8
0
100
AcDbLine
10
27.950000056624411
20
9.9249995976686485
30
0
11
27.950000056624411
21
19.500000290572643
31
0
0
LINE
5
814
100
AcDbEntity
8
0
100
AcDbLine
10
6
20
14
30
0
11
6
21
14.074999999999999
31
0
0
LINE
5
815
100
AcDbEntity
8
0
100
AcDbLine
10
6.9999999329447746
20
1.9999995976686478
30
0
11
6.9999999329447746
21
1.9249995976686485
31
0
0
LINE
5
816
100
AcDbEntity
8
0
100
AcDbLine
10
12.700000070035458
20
2.0750000000000002
30
0
11
14
21
2.0750000000000002
31
0
0
LINE
5
817
100
AcDbEntity
8
0
100
AcDbLine
10
6.9999999329447746
20
10.074999597668647
30
0
11
7.3000000491738302
21
10.074999597668647
31
0
0
LINE
5
818
100
AcDbEntity
8
0
100
AcDbLine
10
6
20
2
30
0
11
6
21
1.925
31
0
0
LINE
5
819
100
AcDbEntity
8
0
100
AcDbLine
10
7.8000000566244125
20
10.074999597668647
30
0
11
7.6500000543892384
21
10.074999597668647
31
0
0
LINE
5
820
100
AcDbEntity
8
0
100
AcDbLine
10
26
20
6
30
0
11
26
21
5.9249999999999998
31
0
0
LINE
5
821
100
AcDbEntity
8
0
100
AcDbLine
10
26
20
5.9249999999999998
30
0
11
24.700000070035458
21
5.9249999999999998
31
0
0
LINE
5
822
100
AcDbEntity
8
0
100
AcDbLine
10
14
20
1.925
30
0
11
12.700000070035458
21
1.925
31
0
0
LINE
5
823
100
AcDbEntity
8
0
100
AcDbLine
10
20.700000070035458
20
1.925
30
0
11
20.700000070035458
21
0.5000000074505806
31
0
0
LINE
5
824
100
AcDbEntity
8
0
100
AcDbLine
10
22
20
5.9249999999999998
30
0
11
20.700000070035458
21
5.9249999999999998
31
0
0
LINE
5
825
100
AcDbEntity
8
0
100
AcDbLine
10
7.4499999228864908
20
9.9249995976686485
30
0
11
7.5477712472650493
21
9.9249995976686485
31
0
0
LINE
5
826
100
AcDbEntity
8
0
100
AcDbLine
10
15.800000056624413
20
13.924999597668648
30
0
11
15.800000056624413
21
19.5
31
0
0
LINE
5
827
100
AcDbEntity
8
0
100
AcDbLine
10
7.9500000566244129
20
1.9249995976686485
30
0
11
8.0499999094754457
21
1.9249995976686485
31
0
0
LINE
5
828
100
AcDbEntity
8
0
100
AcDbLine
10
10.999999932944775
20
17.924999597668648
30
0
11
11.449999922886491
21
17.924999597668648
31
0
0
LINE
5
829
100
AcDbEntity
8
0
100
AcDbLine
10
6.9999999329447746
20
9.9249995976686485
30
0
11
7.4499999228864908
21
9.9249995976686485
31
0
0
LINE
5
830
100
AcDbEntity
8
0
100
AcDbLine
10
11.950000056624413
20
9.9249995976686485
30
0
11
11.950000056624413
21
19.500000290572643
31
0
0
LINE
5
831
100
AcDbEntity
8
0
100
AcDbLine
10
22
20
1.925
30
0
11
20.700000070035458
21
1.925
31
0
0
LINE
5
832
100
AcDbEntity
8
0
100
AcDbLine
10
26
20
6
30
0
11
26
21
6.0750000000000002
31
0
0
LINE
5
833
100
AcDbEntity
8
0
100
AcDbLine
10
7.899999912828207
20
2.0749995976686471
30
0
11
8.0500000603497028
21
2.0749995976686471
31
0
0
LINE
5
834
100
AcDbEntity
8
0
100
AcDbLine
10
2
20
14
30
0
11
2
21
14.074999999999999
31
0
0
LINE
5
835
100
AcDbEntity
8
0
100
AcDbLine
10
3.3000000491738293
20
2.0749995976686471
30
0
11
3.5500000528991222
21
2.0749995976686471
31
0
0
LINE
5
836
100
AcDbEntity
8
0
100
AcDbLine
10
10
20
18
30
0
11
10
21
17.925000000000001
31
0
0
LINE
5
837
100
AcDbEntity
8
0
100
AcDbLine
10
7.3000000491738302
20
10.074999597668647
30
0
11
7.5500000528991222
21
10.074999597668647
31
0
0
LINE
5
838
100
AcDbEntity
8
0
100
AcDbLine
10
3.8000000566244125
20
13.924999597668648
30
0
11
3.8000000566244125
21
19.5
31
0
0
LINE
5
839
100
AcDbEntity
8
0
100
AcDbLine
10
20.550000306218863
20
2.0750000000000002
30
0
11
20.550000306218863
21
0.5000000074505806
31
0
0
LINE
5
840
100
AcDbEntity
8
0
100
AcDbLine
10
6.9999999329447746
20
9.9999995976686478
30
0
11
6.9999999329447746
21
9.9249995976686485
31
0
0
LINE
5
841
100
AcDbEntity
8
0
100
AcDbLine
10
12.700000070035458
20
18.074999999999999
30
0
11
12.550000070035457
21
18.074999999999999
31
0
0
LINE
5
842
100
AcDbEntity
8
0
100
AcDbLine
10
11.697771247265049
20
19.5
30
0
11
11.800000056624413
21
19.5
31
0
0
LINE
5
843
100
AcDbEntity
8
0
100
AcDbLine
10
7.5500000528991222
20
2.0749995976686471
30
0
11
7.6500000543892384
21
2.0749995976686471
31
0
0
LINE
5
844
100
AcDbEntity
8
0
100
AcDbLine
10
23.697771247265049
20
13.924999597668648
30
0
11
23.697771247265049
21
19.5
31
0
0
CIRCLE
5
845
100
AcDbEntity
8
0
100
AcDbCircle
10
14
20
2
30
0
40
1.25
210
0
220
-0
230
1
0
LINE
5
846
100
AcDbEntity
8
0
100
AcDbLine
10
10.999999932944775
20
1.9249995976686485
30
0
11
11.449999922886491
21
1.9249995976686485
31
0
0
LINE
5
847
100
AcDbEntity
8
0
100
AcDbLine
10
7.3000000491738293
20
2.0749995976686471
30
0
11
7.5500000528991222
21
2.0749995976686471
31
0
0
LINE
5
848
100
AcDbEntity
8
0
100
AcDbLine
10
22
20
2
30
0
11
22
21
1.925
31
0
0
LINE
5
849
100
AcDbEntity
8
0
100
AcDbLine
10
22.999999932944775
20
5.9249995976686485
30
0
11
23.449999922886491
21
5.9249995976686485
31
0
0
LINE
5
850
100
AcDbEntity
8
0
100
AcDbLine
10
7.8000000566244125
20
9.9249995976686485
30
0
11
7.9500000566244129
21
9.9249995976686485
31
0
0
LINE
5
851
100
AcDbEntity
8
0
100
AcDbLine
10
8.5500000678002834
20
2.0750000000000002
30
0
11
8.5498830997007218
21
1.925
31
0
0
LINE
5
852
100
AcDbEntity
8
0
100
AcDbLine
10
23.300000049173846
20
6.0749995976686035
30
0
11
23.550000052899122
21
6.0749995976686471
31
0
0
LINE
5
853
100
AcDbEntity
8
0
100
AcDbLine
10
11.950000056624413
20
19.500000290572643
30
0
11
12.050000060349703
21
19.5
31
0
0
LINE
5
854
100
AcDbEntity
8
0
100
AcDbLine
10
27.550000052899122
20
14.074999597668647
30
0
11
27.550000052899122
21
19.5
31
0
0
LINE
5
855
100
AcDbEntity
8
0
100
AcDbLine
10
2.9999999329447746
20
13.999999597668648
30
0
11
2.9999999329447746
21
14.074999597668647
31
0
0
LINE
5
856
100
AcDbEntity
8
0
100
AcDbLine
10
6.9999999329447746
20
2.0749995976686471
30
0
11
7.3000000491738293
21
2.0749995976686471
31
0
0
LINE
5
857
100
AcDbEntity
8
0
100
AcDbLine
10
26
20
6.0750000000000002
30
0
11
24.700000070035458
21
6.0750000000000002
31
0
0
LINE
5
858
100
AcDbEntity
8
0
100
AcDbLine
10
23.54777124726505
20
5.9249995976686485
30
0
11
23.697771247265049
21
5.9249995976686485
31
0
0
LINE
5
859
100
AcDbEntity
8
0
100
AcDbLine
10
11.800000056624413
20
13.924999597668648
30
0
11
11.800000056624413
21
19.5
31
0
0
LINE
5
860
100
AcDbEntity
8
0
100
AcDbLine
10
2.9999999329447746
20
2.0749995976686471
30
0
11
3.3000000491738293
21
2.0749995976686471
31
0
0
LINE
5
861
100
AcDbEntity
8
0
100
AcDbLine
10
2.9999999329447746
20
1.9999995976686478
30
0
11
2.9999999329447746
21
2.0749995976686471
31
0
0
LINE
5
862
100
AcDbEntity
8
0
100
AcDbLine
10
11.449999922886491
20
19.500000290572643
30
0
11
11.550000052899122
21
19.5
31
0
0
LINE
5
863
100
AcDbEntity
8
0
100
AcDbLine
10
12.200000062584877
20
1.9249995976686485
30
0
11
12.450000062584877
21
1.9249995976686485
31
0
0
LINE
5
864
100
AcDbEntity
8
0
100
AcDbLine
10
0.20000000298023224
20
0.35000000521540642
30
0
11
0.20000000298023224
21
0.5000000074505806
31
0
0
LINE
5
865
100
AcDbEntity
8
0
100
AcDbLine
10
7.5500000528991222
20
10.074999597668647
30
0
11
7.6500000543892384
21
10.074999597668647
31
0
0
LINE
5
866
100
AcDbEntity
8
0
100
AcDbLine
10
6.9999999329447746
20
5.9999995976686478
30
0
11
6.9999999329447746
21
6.0749995976686471
31
0
0
LINE
5
867
100
AcDbEntity
8
0
100
AcDbLine
10
4.7000000700354576
20
0.5000000074505806
30
0
11
8.5498830997007218
21
0.5000000074505806
31
0
0
LINE
5
868
100
AcDbEntity
8
0
100
AcDbLine
10
24.049999909475446
20
5.9249995976686485
30
0
11
24.200000062584877
21
5.9249995976686485
31
0
0
LINE
5
869
100
AcDbEntity
8
0
100
AcDbLine
10
22
20
6.0750000000000002
30
0
11
20.700000070035458
21
6.0750000000000002
31
0
0
LINE
5
870
100
AcDbEntity
8
0
100
AcDbLine
10
12.700000070035458
20
17.922078889826093
30
0
11
14
21
17.925000000000001
31
0
0
LINE
5
871
100
AcDbEntity
8
0
100
AcDbLine
10
8.7000000700354576
20
0.5000000074505806
30
0
11
8.7000000700354576
21
1.925
31
0
0
CIRCLE
5
872
100
AcDbEntity
8
0
100
AcDbCircle
10
14
20
6
30
0
40
1.25
210
0
220
-0
230
1
0
LINE
5
873
100
AcDbEntity
8
0
100
AcDbLine
10
3.6977712472650492
20
13.924999597668648
30
0
11
3.6977712472650492
21
19.5
31
0
0
LINE
5
874
100
AcDbEntity
8
0
100
AcDbLine
10
2
20
5.9249999999999998
30
0
11
0.40000000596046448
21
5.9249999999999998
31
0
0
LINE
5
875
100
AcDbEntity
8
0
100
AcDbLine
10
8.0499999094754457
20
5.9249995976686485
30
0
11
8.200000062584877
21
5.9249995976686485
31
0
0
LINE
5
876
100
AcDbEntity
8
0
100
AcDbLine
10
6.9999999329447746
20
6.0749995976686471
30
0
11
7.3000000491738293
21
6.0749995976686471
31
0
0
LINE
5
877
100
AcDbEntity
8
0
100
AcDbLine
10
2
20
6
30
0
11
2
21
6.0750000000000002
31
0
0
LINE
5
878
100
AcDbEntity
8
0
100
AcDbLine
10
7.8000000566244125
20
13.924999597668648
30
0
11
7.8000000566244125
21
19.5
31
0
0
LINE
5
879
100
AcDbEntity
8
0
100
AcDbLine
10
3.9500000566244124
20
9.9249995976686485
30
0
11
3.9500000566244124
21
19.500000290572643
31
0
0
LINE
5
880
100
AcDbEntity
8
0
100
AcDbLine
10
14
20
18
30
0
11
14
21
17.925000000000001
31
0
0
LINE
5
881
100
AcDbEntity
8
0
100
AcDbLine
10
6
20
2.0750000000000002
30
0
11
4.7000000700354576
21
2.0750000000000002
31
0
0
LINE
5
882
100
AcDbEntity
8
0
100
AcDbLine
10
7.8000000566244125
20
2.0749995976686471
30
0
11
7.899999912828207
21
2.0749995976686471
31
0
0
LINE
5
883
100
AcDbEntity
8
0
100
AcDbLine
10
8.0499999094754457
20
1.9249995976686485
30
0
11
8.200000062584877
21
1.9249995976686485
31
0
0
CIRCLE
5
884
100
AcDbEntity
8
0
100
AcDbCircle
10
18
20
6
30
0
40
1.25
210
0
220
-0
230
1
0
LINE
5
885
100
AcDbEntity
8
0
100
AcDbLine
10
7.8000000566244125
20
6.0749995976686471
30
0
11
7.899999912828207
21
6.0749995976686471
31
0
0
LINE
5
886
100
AcDbEntity
8
0
100
AcDbLine
10
7.8000000566244125
20
13.924999597668648
30
0
11
7.8000000566244125
21
10.100000150501728
31
0
0
LINE
5
887
100
AcDbEntity
8
0
100
AcDbLine
10
6.9999999329447746
20
5.9249995976686485
30
0
11
7.4499999228864908
21
5.9249995976686485
31
0
0
LINE
5
888
100
AcDbEntity
8
0
100
AcDbLine
10
14
20
18.074999999999999
30
0
11
12.700000070035458
21
18.074999999999999
31
0
0
LINE
5
889
100
AcDbEntity
8
0
100
AcDbLine
10
6.9999999329447746
20
1.9249995976686485
30
0
11
7.4499999228864908
21
1.9249995976686485
31
0
0
LINE
5
890
100
AcDbEntity
8
0
100
AcDbLine
10
6
20
13.925000000000001
30
0
11
4.6967436418860595
21
13.924641849032696
31
0
0
LINE
5
891
100
AcDbEntity
8
0
100
AcDbLine
10
27.697771247265049
20
13.924999597668648
30
0
11
27.697771247265049
21
19.5
31
0
0
CIRCLE
5
892
100
AcDbEntity
8
0
100
AcDbCircle
10
6
20
6
30
0
40
1.25
210
0
220
-0
230
1
0
LINE
5
893
100
AcDbEntity
8
0
100
AcDbLine
10
12.450000062584877
20
19.500000290572643
30
0
11
12.450000062584877
21
20.350000290572645
31
0
0
LINE
5
894
100
AcDbEntity
8
0
100
AcDbLine
10
2.9999999329447746
20
6.0749995976686471
30
0
11
3.3000000491738297
21
6.0749995976686471
31
0
0
LINE
5
895
100
AcDbEntity
8
0
100
AcDbLine
10
23.899999912828207
20
6.0749995976686471
30
0
11
24.050000060349703
21
6.0749995976686471
31
0
0
LINE
5
896
100
AcDbEntity
8
0
100
AcDbLine
10
3.8000000566244125
20
6.0749995976686471
30
0
11
3.899999912828207
21
6.0749995976686471
31
0
0
LINE
5
897
100
AcDbEntity
8
0
100
AcDbLine
10
7.3000000491738293
20
6.0749995976686471
30
0
11
7.5500000528991222
21
6.0749995976686471
31
0
0
LINE
5
898
100
AcDbEntity
8
0
100
AcDbLine
10
6
20
6
30
0
11
6
21
6.0750000000000002
31
0
0
LINE
5
899
100
AcDbEntity
8
0
100
AcDbLine
10
8.5498830997007218
20
1.925
30
0
11
8.5498830997007218
21
0.5000000074505806
31
0
0
LINE
5
900
100
AcDbEntity
8
0
100
AcDbLine
10
23.697771247265049
20
5.9249995976686485
30
0
11
23.800000056624413
21
5.9249995976686485
31
0
0
CIRCLE
5
901
100
AcDbEntity
8
0
100
AcDbCircle
10
6
20
2
30
0
40
1.25
210
0
220
-0
230
1
0
LINE
5
902
100
AcDbEntity
8
0
100
AcDbLine
10
12.300000064074993
20
19.500000290572643
30
0
11
12.200000060349703
21
19.5
31
0
0
LINE
5
903
100
AcDbEntity
8
0
100
AcDbLine
10
7.6977712472650488
20
13.924999597668648
30
0
11
7.6977712472650488
21
19.5
31
0
0
LINE
5
904
100
AcDbEntity
8
0
100
AcDbLine
10
19.697771247265049
20
13.924999597668648
30
0
11
19.697771247265049
21
19.5
31
0
0
LINE
5
905
100
AcDbEntity
8
0
100
AcDbLine
10
7.5477712472650493
20
13.924999597668648
30
0
11
7.6977712472650488
21
13.924999597668648
31
0
0
LINE
5
906
100
AcDbEntity
8
0
100
AcDbLine
10
3.899999912828207
20
6.0749995976686471
30
0
11
4.0500000603497028
21
6.0749995976686471
31
0
0
LINE
5
907
100
AcDbEntity
8
0
100
AcDbLine
10
8.200000062584877
20
1.9249995976686485
30
0
11
8.450000062584877
21
1.9249995976686485
31
0
0
LINE
5
908
100
AcDbEntity
8
0
100
AcDbLine
10
6
20
2
30
0
11
6
21
2.0750000000000002
31
0
0
LINE
5
909
100
AcDbEntity
8
0
100
AcDbLine
10
23.449999922886491
20
5.9249995976686485
30
0
11
23.54777124726505
21
5.9249995976686485
31
0
0
LINE
5
910
100
AcDbEntity
8
0
100
AcDbLine
10
7.8000000566244125
20
2.0749995976686471
30
0
11
7.6500000543892384
21
2.0749995976686471
31
0
0
LINE
5
911
100
AcDbEntity
8
0
100
AcDbLine
10
7.6977712472650488
20
9.9249995976686485
30
0
11
7.8000000566244125
21
9.9249995976686485
31
0
0
LINE
5
912
100
AcDbEntity
8
0
100
AcDbLine
10
3.4499999228864908
20
5.9249995976686485
30
0
11
3.5477712472650493
21
5.9249995976686485
31
0
0
LINE
5
913
100
AcDbEntity
8
0
100
AcDbLine
10
23.950000056624411
20
5.9249995976686485
30
0
11
24.049999909475446
21
5.9249995976686485
31
0
0
LINE
5
914
100
AcDbEntity
8
0
100
AcDbLine
10
3.8000000566244125
20
5.9249995976686485
30
0
11
3.9500000566244124
21
5.9249995976686485
31
0
0
LINE
5
915
100
AcDbEntity
8
0
100
AcDbLine
10
6
20
14
30
0
11
6
21
13.925000000000001
31
0
0
LINE
5
916
100
AcDbEntity
8
0
100
AcDbLine
10
31.550000052899122
20
14.074999597668647
30
0
11
31.550000052899122
21
19.5
31
0
0
LINE
5
917
100
AcDbEntity
8
0
100
AcDbLine
10
23.800000056624413
20
6.0749995976686471
30
0
11
23.899999912828207
21
6.0749995976686471
31
0
0
LINE
5
918
100
AcDbEntity
8
0
100
AcDbLine
10
7.9500000566244129
20
9.9249995976686485
30
0
11
7.9500000566244129
21
19.500000290572643
31
0
0
CIRCLE
5
919
100
AcDbEntity
8
0
100
AcDbCircle
10
26
20
6
30
0
40
1.25
210
0
220
-0
230
1
0
LINE
5
920
100
AcDbEntity
8
0
100
AcDbLine
10
2
20
6.0750000000000002
30
0
11
0.40000000596046448
21
6.0750000000000002
31
0
0
LINE
5
921
100
AcDbEntity
8
0
100
AcDbLine
10
14
20
18
30
0
11
14
21
18.074999999999999
31
0
0
LINE
5
922
100
AcDbEntity
8
0
100
AcDbLine
10
30.999999932944775
20
13.999999597668648
30
0
11
30.999999932944775
21
14.074999597668647
31
0
0
CIRCLE
5
923
100
AcDbEntity
8
0
100
AcDbCircle
10
26
20
14
30
0
40
1.25
210
0
220
-0
230
1
0
LINE
5
924
100
AcDbEntity
8
0
100
AcDbLine
10
30
20
14
30
0
11
30
21
13.925000000000001
31
0
0
LINE
5
925
100
AcDbEntity
8
0
100
AcDbLine
10
27.800000056624413
20
13.924999597668648
30
0
11
27.800000056624413
21
10.100000150501728
31
0
0
LINE
5
926
100
AcDbEntity
8
0
100
AcDbLine
10
30
20
14
30
0
11
30
21
14.074999999999999
31
0
0
LINE
5
927
100
AcDbEntity
8
0
100
AcDbLine
10
24.700000070035458
20
10.074999999999999
30
0
11
24.700000070035458
21
13.92391942296889
31
0
0
LINE
5
928
100
AcDbEntity
8
0
100
AcDbLine
10
31.30000004917391
20
14.074999597668489
30
0
11
31.550000052899122
21
14.074999597668647
31
0
0
LINE
5
929
100
AcDbEntity
8
0
100
AcDbLine
10
28.700000070035458
20
13.925000000000001
30
0
11
28.700000070035458
21
10.074999999999999
31
0
0
LINE
5
930
100
AcDbEntity
8
0
100
AcDbLine
10
27.300000049173828
20
14.074999597668649
30
0
11
27.550000052899122
21
14.074999597668647
31
0
0
LINE
5
931
100
AcDbEntity
8
0
100
AcDbLine
10
27.54777124726505
20
13.924999597668648
30
0
11
27.697771247265049
21
13.924999597668648
31
0
0
LINE
5
932
100
AcDbEntity
8
0
100
AcDbLine
10
23.800000056624413
20
13.924999597668648
30
0
11
23.800000056624413
21
10.100000150501728
31
0
0
LINE
5
933
100
AcDbEntity
8
0
100
AcDbLine
10
26.000262873769948
20
13.92391942296889
30
0
11
24.700000070035458
21
13.92391942296889
31
0
0
LINE
5
934
100
AcDbEntity
8
0
100
AcDbLine
10
26.999999932944775
20
13.924999597668648
30
0
11
27.449999922886491
21
13.924999597668648
31
0
0
LINE
5
935
100
AcDbEntity
8
0
100
AcDbLine
10
26.000262873769948
20
14.074999078620428
30
0
11
24.700000070035458
21
14.074999078620428
31
0
0
LINE
5
936
100
AcDbEntity
8
0
100
AcDbLine
10
26.999999932944775
20
14.074999597668647
30
0
11
27.300000049173828
21
14.074999597668649
31
0
0
LINE
5
937
100
AcDbEntity
8
0
100
AcDbLine
10
16.300000064074993
20
19.500000290572643
30
0
11
16.300000060349703
21
2.0749995976686471
31
0
0
LINE
5
938
100
AcDbEntity
8
0
100
AcDbLine
10
28.050000060349703
20
6.0749995976686471
30
0
11
28.050000060349703
21
19.5
31
0
0
LINE
5
939
100
AcDbEntity
8
0
100
AcDbLine
10
8.0500000603497028
20
6.0749995976686471
30
0
11
8.0500000603497028
21
19.5
31
0
0
LINE
5
940
100
AcDbEntity
8
0
100
AcDbLine
10
19.950000056624411
20
19.500000290572643
30
0
11
20.050000060349703
21
19.5
31
0
0
LINE
5
941
100
AcDbEntity
8
0
100
AcDbLine
10
19.449999922886491
20
17.924999597668648
30
0
11
19.449999922886491
21
19.500000290572643
31
0
0
LINE
5
942
100
AcDbEntity
8
0
100
AcDbLine
10
16.550000246614218
20
2.0750000000000002
30
0
11
16.550000246614218
21
18.074999999999999
31
0
0
LINE
5
943
100
AcDbEntity
8
0
100
AcDbLine
10
19.697771247265049
20
19.5
30
0
11
19.800000056624413
21
19.5
31
0
0
LINE
5
944
100
AcDbEntity
8
0
100
AcDbLine
10
32.300000064074993
20
19.500000290572643
30
0
11
32.300000060349703
21
2.0749995976686471
31
0
0
LINE
5
945
100
AcDbEntity
8
0
100
AcDbLine
10
19.300000049173828
20
18.074999597668647
30
0
11
19.300000049173832
21
19.500000290572643
31
0
0
LINE
5
946
100
AcDbEntity
8
0
100
AcDbLine
10
20.450000062584877
20
19.500000290572643
30
0
11
20.450000062584877
21
21.100000314414501
31
0
0
LINE
5
947
100
AcDbEntity
8
0
100
AcDbLine
10
18.999999932944775
20
17.924999597668648
30
0
11
19.449999922886491
21
17.924999597668648
31
0
0
LINE
5
948
100
AcDbEntity
8
0
100
AcDbLine
10
18.999999932944775
20
17.999999597668648
30
0
11
18.999999932944775
21
18.074999597668647
31
0
0
CIRCLE
5
949
100
AcDbEntity
8
0
100
AcDbCircle
10
2
20
10
30
0
40
1.25
210
0
220
-0
230
1
0
LINE
5
950
100
AcDbEntity
8
0
100
AcDbLine
10
24.200000060349701
20
19.5
30
0
11
24.200000062584877
21
5.9249995976686485
31
0
0
CIRCLE
5
951
100
AcDbEntity
8
0
100
AcDbCircle
10
26
20
10
30
0
40
1.25
210
0
220
-0
230
1
0
LINE
5
952
100
AcDbEntity
8
0
100
AcDbLine
10
32.200000060349701
20
19.5
30
0
11
32.200000062584877
21
5.9249995976686485
31
0
0
LINE
5
953
100
AcDbEntity
8
0
100
AcDbLine
10
16.200000060349701
20
19.5
30
0
11
16.200000062584877
21
5.9249995976686485
31
0
0
LINE
5
954
100
AcDbEntity
8
0
100
AcDbLine
10
28.200000060349701
20
19.5
30
0
11
28.200000062584877
21
5.9249995976686485
31
0
0
LINE
5
955
100
AcDbEntity
8
0
100
AcDbLine
10
12.300000064074993
20
19.500000290572643
30
0
11
12.300000060349703
21
2.0749995976686471
31
0
0
LINE
5
956
100
AcDbEntity
8
0
100
AcDbLine
10
4.3000000640749931
20
19.500000290572643
30
0
11
4.3000000603497028
21
2.0749995976686471
31
0
0
LINE
5
957
100
AcDbEntity
8
0
100
AcDbLine
10
19.300000049173832
20
19.500000290572643
30
0
11
19.300000049173835
21
20.900000311434269
31
0
0
LINE
5
958
100
AcDbEntity
8
0
100
AcDbLine
10
18.999999932944775
20
18.074999597668647
30
0
11
19.300000049173828
21
18.074999597668647
31
0
0
LINE
5
959
100
AcDbEntity
8
0
100
AcDbLine
10
20.200000060349701
20
19.5
30
0
11
20.300000064074993
21
19.500000290572643
31
0
0
LINE
5
960
100
AcDbEntity
8
0
100
AcDbLine
10
4.2000000603497032
20
19.5
30
0
11
4.200000062584877
21
5.9249995976686485
31
0
0
LINE
5
961
100
AcDbEntity
8
0
100
AcDbLine
10
0.40000000596046448
20
6.0750000000000002
30
0
11
0.40000000596046448
21
9.9250000000000007
31
0
0
LINE
5
962
100
AcDbEntity
8
0
100
AcDbLine
10
19.449999922886491
20
19.500000290572643
30
0
11
19.550000052899122
21
19.5
31
0
0
ENDSEC
0
SECTION
2
OBJECTS
0
DICTIONARY
5
C
100
AcDbDictionary
3
ACAD_GROUP
350
D
3
ACAD_MLINESTYLE
350
17
0
DICTIONARY
5
D
100
AcDbDictionary
0
DICTIONARY
5
1A
330
C
100
AcDbDictionary
0
DICTIONARY
5
17
100
AcDbDictionary
0
ENDSEC
0
EOF
